<?xml version="1.0" standalone="no"?>
<!DOCTYPE svg PUBLIC "-//W3C//DTD SVG 1.1//EN" "http://www.w3.org/Graphics/SVG/1.1/DTD/svg11.dtd" >
<svg xmlns="http://www.w3.org/2000/svg" xmlns:xlink="http://www.w3.org/1999/xlink" version="1.1">
<metadata>
Created by FontForge 20170924 at Fri Aug 26 00:56:58 2022
 By www-data
Storytype Studio 2021. All Rights Reserved
</metadata>
<defs>
<font id="Satista" horiz-adv-x="223" >
  <font-face 
    font-family="Satista"
    font-weight="400"
    font-stretch="normal"
    units-per-em="1000"
    panose-1="2 0 6 0 0 0 0 0 0 0"
    ascent="800"
    descent="-200"
    x-height="469"
    cap-height="668"
    bbox="-163 -288 1049 830"
    underline-thickness="50"
    underline-position="-75"
    unicode-range="U+0020-FB02"
  />
<missing-glyph horiz-adv-x="482" 
d="M442 0h-402v700h402v-700zM418 24v652h-354v-652h354zM224 222h-15c-12 31 -17 55 -17 72c0 25 13 60 39 106c27 47 40 82 40 106c0 37 -22 60 -60 60c-24 0 -40 -9 -61 -27v22c29 26 55 35 83 35c58 0 99 -31 99 -85c0 -33 -14 -62 -53 -112c-21 -26 -37 -47 -49 -64
c-11 -17 -17 -33 -17 -48c0 -13 4 -34 11 -65zM219 104c-4 0 -7 2 -10 5l-30 35c-2 2 -3 5 -3 8c0 4 1 7 5 11l28 28c3 4 7 5 10 5s6 -2 10 -5l28 -29c3 -4 4 -7 4 -10c0 -4 -2 -7 -5 -11l-27 -30c-5 -5 -8 -7 -10 -7z" />
    <glyph glyph-name="t_i" unicode="ti" horiz-adv-x="500" 
d="M413 0c-83 0 -83 103 -83 103v255c0 29 -24 53 -54 53h-41v7c76 8 122 17 189 53v-381c0 -33 13 -56 37 -56l10 1c31 8 51 59 51 59l8 -3s-31 -91 -117 -91zM166 0h-4c-118 0 -125 98 -125 135v331h-67v6h67v67l94 94v-161h85l42 1c37 3 64 34 64 71v10c0 30 25 55 55 55
c28 0 54 -23 54 -55c-2 -80 -157 -88 -204 -88h-96v-347c0 -68 31 -98 68 -98c10 0 21 3 32 8c57 27 57 97 57 97h8c-11 -120 -109 -126 -130 -126z" />
    <glyph glyph-name="r_s" unicode="rs" horiz-adv-x="624" 
d="M462 -3c-212 0 -202 151 -203 153l117 49l4 -6c-35 -13 -47 -35 -47 -70c4 -69 52 -120 129 -120c18 0 116 7 116 95c-1 38 -32 70 -102 91l-114 34c-73 26 -103 66 -103 113c0 51 47 136 194 136c84 0 146 -29 176 -88l-143 -59l-3 6c33 14 51 32 51 64
c0 36 -32 71 -81 71c-57 0 -106 -41 -106 -84c0 -31 25 -63 81 -79l107 -30c95 -26 119 -79 119 -132c0 -35 -35 -144 -192 -144zM253 0h-283v7h41c30 0 54 24 54 54v295c0 30 -24 54 -54 54h-41v6c77 11 117 16 189 53v-161s11 259 336 290l53 -98s-48 12 -110 12
c-115 0 -279 -41 -279 -278v-173c0 -30 24 -54 54 -54h40v-7z" />
    <glyph glyph-name="i_k" unicode="ik" horiz-adv-x="794" 
d="M-30 0v7h41c15 0 27 5 38 16c11 10 16 23 16 38v295c0 15 -5 27 -16 38s-23 16 -38 16h-41v6c37 4 69 10 98 17c28 7 58 19 91 36v-408c0 -15 5 -28 16 -38c10 -11 22 -16 37 -16h47c15 0 28 5 39 16c10 11 15 23 15 38v547c0 15 -5 27 -15 38c-11 10 -24 15 -39 15h-86
c-33 -1 -59 -11 -78 -30c-2 0 -3 -1 -4 -3c-1 -3 -1 -5 -1 -6c0 -3 1 -6 4 -9s6 -5 10 -5l8 1c15 0 27 -5 38 -16s16 -24 16 -39c-3 -37 -22 -55 -55 -55c-6 0 -12 1 -19 3c-9 3 -17 8 -22 14s-9 12 -11 18c-3 5 -4 10 -5 14c0 2 0 3 -1 4v9c0 7 2 17 7 31c4 14 14 29 31 45
c24 21 55 31 94 31c37 0 75 4 112 12s74 22 110 41v-495l185 186c5 7 8 14 8 21c0 13 -4 22 -12 25c-9 3 -20 5 -34 5v6h195v-6c-49 0 -86 -7 -109 -22c-24 -15 -53 -41 -87 -78l-5 -5l156 -294c24 -38 56 -57 96 -57h24v-7h-283v7h25c11 0 20 4 27 12c7 7 10 16 10 26
c0 5 -1 11 -4 17l-121 226l-38 -39c-22 -23 -33 -50 -33 -79v-109c0 -15 5 -27 16 -38s23 -16 38 -16h40v-7h-531z" />
    <glyph glyph-name="i_b" unicode="ib" horiz-adv-x="736" 
d="M576 -3c-80 0 -148 73 -169 172v-169h-437v7h40c30 0 54 24 54 54v295c0 30 -24 54 -54 54h-40v6c76 10 118 16 188 53v-408c0 -30 25 -54 54 -54h47c30 0 54 24 54 54v547c0 29 -24 53 -54 53h-87c-34 -1 -58 -10 -78 -30c-3 -3 -4 -6 -4 -9c0 -7 6 -13 13 -13h8
c30 0 55 -25 55 -55c-3 -34 -22 -55 -55 -55c-7 0 -13 1 -19 3c-38 14 -39 52 -39 52v7c0 13 4 45 37 76c25 22 56 31 95 31c95 4 144 10 222 53v-421c21 99 89 172 169 172c97 0 175 -106 175 -237c0 -132 -78 -238 -175 -238zM541 22c65 0 116 91 116 213
c0 121 -51 204 -115 204c-61 -4 -135 -70 -135 -204c0 -128 63 -204 125 -212z" />
    <glyph glyph-name="i_h" unicode="ih" horiz-adv-x="802" 
d="M832 0h-189v249c-4 113 -54 190 -116 190c-59 -4 -119 -67 -120 -200v-178c0 -30 24 -54 53 -54h41v-7h-531v7h40c30 0 54 24 54 54v295c0 30 -24 54 -54 54h-40v6c76 10 118 16 188 53v-408c0 -30 24 -54 54 -54h47c29 0 53 24 53 54v547c0 29 -24 53 -53 53h-87
c-35 -1 -58 -10 -78 -30c-3 -3 -4 -6 -4 -9c0 -7 5 -13 13 -13h8c31 0 55 -25 55 -56c-3 -34 -24 -54 -55 -54c-7 0 -13 1 -19 3c-39 14 -40 52 -40 52v5c0 13 3 46 38 78c25 22 55 31 95 31c96 4 142 10 222 53v-411c24 100 72 162 155 162c109 0 175 -106 175 -237v-174
c0 -30 25 -54 54 -54h41v-7z" />
    <glyph glyph-name="i_l" unicode="il" horiz-adv-x="471" 
d="M501 0h-531v7h40c30 0 54 24 54 54v295c0 30 -24 54 -54 54h-40v6c76 10 118 16 188 53v-408c0 -30 25 -54 54 -54h47c30 0 54 24 54 54v547c0 29 -24 53 -54 53h-87c-34 -1 -58 -10 -78 -30c-3 -3 -4 -6 -4 -9c0 -7 6 -13 13 -13h8c30 0 55 -25 55 -55
c-3 -34 -22 -55 -55 -55c-7 0 -13 1 -19 3c-38 14 -39 52 -39 52v7c0 13 4 45 37 76c25 22 56 31 95 31c97 4 142 10 222 53v-660c0 -30 24 -54 54 -54h40v-7z" />
    <glyph glyph-name="d_i" unicode="di" horiz-adv-x="736" 
d="M161 -3c-97 0 -176 106 -176 238c0 131 79 237 176 237c80 0 148 -73 169 -172v421c69 -37 138 -53 217 -53c42 0 73 -7 99 -31c34 -31 38 -63 38 -76v-7s-1 -38 -40 -52c-6 -2 -12 -3 -19 -3c-31 0 -52 20 -55 54c0 31 24 56 55 56h9c7 0 12 6 12 13c0 3 0 9 -4 9
c-20 20 -43 29 -78 30h-86c-30 0 -54 -24 -54 -53v-547c0 -30 24 -54 54 -54h46c30 0 54 24 54 54v295c0 30 -24 54 -54 54h-40v6c76 10 118 16 188 53v-408c0 -30 24 -54 54 -54h40v-7h-436v169c-21 -99 -89 -172 -169 -172zM194 30c67 5 136 70 136 204
c0 136 -72 200 -138 205c-62 0 -113 -84 -113 -204c0 -122 52 -205 115 -205z" />
    <glyph glyph-name=".notdef" horiz-adv-x="482" 
d="M442 0h-402v700h402v-700zM418 24v652h-354v-652h354zM224 222h-15c-12 31 -17 55 -17 72c0 25 13 60 39 106c27 47 40 82 40 106c0 37 -22 60 -60 60c-24 0 -40 -9 -61 -27v22c29 26 55 35 83 35c58 0 99 -31 99 -85c0 -33 -14 -62 -53 -112c-21 -26 -37 -47 -49 -64
c-11 -17 -17 -33 -17 -48c0 -13 4 -34 11 -65zM219 104c-4 0 -7 2 -10 5l-30 35c-2 2 -3 5 -3 8c0 4 1 7 5 11l28 28c3 4 7 5 10 5s6 -2 10 -5l28 -29c3 -4 4 -7 4 -10c0 -4 -2 -7 -5 -11l-27 -30c-5 -5 -8 -7 -10 -7z" />
    <glyph glyph-name="space" unicode=" " horiz-adv-x="199" 
 />
    <glyph glyph-name="space" unicode="&#xa0;" horiz-adv-x="199" 
 />
    <glyph glyph-name="exclam" unicode="!" horiz-adv-x="180" 
d="M90 -1c-28 0 -50 22 -50 50c0 27 22 50 50 50c27 0 50 -23 50 -50c0 -28 -23 -50 -50 -50zM93 133h-7l-43 535h94z" />
    <glyph glyph-name="quotedbl" unicode="&#x22;" horiz-adv-x="297" 
d="M49 492c39 28 41 68 41 75v1c-28 0 -50 22 -50 50c0 27 22 50 50 50c30 0 50 -24 50 -51c0 -12 -3 -86 -91 -125zM166 492c39 28 41 68 41 75v1c-28 0 -50 22 -50 50c0 27 22 50 50 50c30 0 50 -24 50 -51c0 -12 -3 -86 -91 -125z" />
    <glyph glyph-name="numbersign" unicode="#" horiz-adv-x="918" 
d="M478 0h-7l77 190l-295 1l-77 -191h-8l78 191h-206l3 7l206 -1l111 274h-206l3 7l206 -1l77 191h7l-77 -191h295l77 191h8l-78 -191l206 -1l-3 -6h-206l-111 -273l206 -1l-3 -6h-206zM551 197l111 273l-295 1l-111 -274h295z" />
    <glyph glyph-name="dollar" unicode="$" horiz-adv-x="551" 
d="M279 -92h-7v88h-12c-140 8 -218 91 -220 92l106 144l6 -4c-26 -35 -41 -53 -41 -94c0 -76 71 -131 161 -131v286l-119 51c-77 34 -113 94 -113 154c0 95 66 176 232 176v83h7v-83c93 -3 137 -30 201 -72l-104 -141l-5 4l30 41c10 14 14 30 14 47c0 20 -7 41 -19 56
c-32 40 -67 55 -117 58v-271l115 -50c79 -34 117 -97 117 -160c0 -107 -73 -186 -226 -186h-6v-88zM272 395v268h-12c-86 0 -147 -63 -147 -124c0 -44 26 -86 81 -110zM279 3c112 2 162 77 162 141c0 49 -49 93 -109 119l-53 23v-283z" />
    <glyph glyph-name="percent" unicode="%" horiz-adv-x="606" 
d="M168 0h-7l272 668h7zM167 363c-70 0 -127 68 -127 153c0 84 57 153 127 153c69 0 126 -69 126 -153c0 -85 -57 -153 -126 -153zM167 366c44 0 81 67 81 150s-37 150 -81 150c-45 0 -82 -67 -82 -150s37 -150 82 -150zM440 -2c-70 0 -126 69 -126 153c0 85 56 153 126 153
s126 -68 126 -153c0 -84 -56 -153 -126 -153zM440 1c45 0 81 67 81 150s-36 150 -81 150s-81 -67 -81 -150s36 -150 81 -150z" />
    <glyph glyph-name="ampersand" unicode="&#x26;" horiz-adv-x="612" 
d="M309 -2c-148 0 -269 103 -269 231c0 114 95 177 221 197c-88 10 -162 45 -162 118c4 75 82 126 210 126c116 0 209 -48 209 -108c0 -40 -71 -84 -142 -88l-2 6c30 10 59 34 59 80c-1 56 -40 103 -117 103c-71 -1 -116 -49 -120 -119c0 -64 54 -114 113 -114v-7
c-93 0 -168 -69 -168 -194c0 -124 75 -225 168 -225c81 0 159 67 159 166c0 14 -2 29 -5 44l-1 2c-15 64 -72 106 -134 106c-33 0 -47 -9 -80 -23l-4 8l119 52c159 66 167 144 167 159v3l7 1l35 -89l-128 -46c109 -32 126 -132 126 -166c0 -128 -112 -223 -261 -223z" />
    <glyph glyph-name="quotesingle" unicode="'" horiz-adv-x="180" 
d="M49 492c39 28 41 68 41 75v1c-28 0 -50 22 -50 50c0 27 22 50 50 50c30 0 50 -24 50 -51c0 -12 -3 -86 -91 -125z" />
    <glyph glyph-name="parenleft" unicode="(" horiz-adv-x="370" 
d="M330 -51c-160 0 -290 172 -290 385c0 212 130 384 290 384v-6c-106 0 -193 -170 -193 -378c0 -209 87 -378 193 -378v-7z" />
    <glyph glyph-name="parenright" unicode=")" horiz-adv-x="370" 
d="M40 -51v7c106 0 193 169 193 378c0 208 -87 378 -193 378v6c160 0 290 -172 290 -384c0 -213 -130 -385 -290 -385z" />
    <glyph glyph-name="asterisk" unicode="*" horiz-adv-x="519" 
d="M348 353l-88 191l-89 -191l-76 55l155 144l-210 25l29 89l184 -102l-40 207h94l-41 -207l184 103l29 -90l-209 -25l155 -144z" />
    <glyph glyph-name="plus" unicode="+" horiz-adv-x="321" 
d="M164 213h-7v117h-117v7h117v117h7v-117h117v-7h-117v-117z" />
    <glyph glyph-name="comma" unicode="," horiz-adv-x="180" 
d="M49 -76c39 28 41 68 41 75v1c-28 0 -50 22 -50 50c0 27 22 49 50 49c30 0 50 -23 50 -50c0 -12 -3 -86 -91 -125z" />
    <glyph glyph-name="hyphenminus" unicode="-" horiz-adv-x="321" 
d="M281 330h-241v7h241v-7z" />
    <glyph glyph-name="hyphenminus" unicode="&#xad;" horiz-adv-x="321" 
d="M281 330h-241v7h241v-7z" />
    <glyph glyph-name="period" unicode="." horiz-adv-x="180" 
d="M90 0c-28 0 -50 22 -50 50c0 27 22 49 50 49c27 0 50 -22 50 -49c0 -28 -23 -50 -50 -50z" />
    <glyph glyph-name="slash" unicode="/" horiz-adv-x="359" 
d="M47 0h-7l272 668h7z" />
    <glyph glyph-name="zero" unicode="0" horiz-adv-x="634" 
d="M317 -2c-153 0 -277 151 -277 336c0 186 124 337 277 337s277 -151 277 -337c0 -185 -124 -336 -277 -336zM317 5c99 0 178 147 178 329c0 183 -79 330 -178 330c-98 0 -178 -147 -178 -330c0 -182 80 -329 178 -329z" />
    <glyph glyph-name="one" unicode="1" horiz-adv-x="363" 
d="M323 0h-283v7h40c30 0 54 24 54 54v494c0 30 -24 54 -54 54h-40v6c75 9 122 17 188 53v-607c0 -30 25 -54 54 -54h41v-7z" />
    <glyph glyph-name="two" unicode="2" horiz-adv-x="583" 
d="M543 0h-495l43 94c68 39 177 99 224 135c66 53 126 110 126 224c0 124 -65 210 -158 210c-59 0 -111 -40 -141 -102c-7 -15 -10 -30 -10 -46c0 -49 23 -70 63 -104c0 -5 -1 -2 -4 -6l-151 133l4 6c44 75 135 126 239 126c149 0 260 -81 260 -209c0 -21 -8 -110 -116 -180
c-185 -117 -284 -167 -322 -187h378c18 0 32 15 32 33c-1 25 -1 12 -5 37l6 1z" />
    <glyph glyph-name="three" unicode="3" horiz-adv-x="593" 
d="M283 -2c-115 0 -211 69 -243 133c102 89 47 40 150 132c2 -1 4 -3 5 -5c-40 -35 -63 -56 -63 -105c0 -15 3 -31 10 -45c30 -62 82 -103 141 -103c93 0 169 101 169 225s-68 225 -169 225c-20 0 -39 -8 -54 -22l-28 -26l-5 5l173 162h-244c-18 0 -32 -15 -32 -32
c2 -25 1 -13 5 -38l-6 -1l-27 165h414l-221 -207c9 1 17 1 25 1c149 0 270 -104 270 -232s-121 -232 -270 -232z" />
    <glyph glyph-name="four" unicode="4" horiz-adv-x="610" 
d="M570 0h-283v7h41c29 0 53 24 53 54v136h-341c25 29 136 109 136 308c0 38 -4 79 -14 125l114 38s-22 -291 -220 -464h325v306l94 29v-335h95v-7h-95v-136c0 -30 25 -54 54 -54h41v-7z" />
    <glyph glyph-name="five" unicode="5" horiz-adv-x="592" 
d="M283 -2c-100 0 -202 51 -243 133l149 132c2 0 3 -2 6 -5h-1c-39 -35 -63 -55 -63 -104c0 -16 4 -31 11 -46c29 -62 82 -103 141 -103c93 0 168 101 168 225s-75 225 -189 225c-112 0 -177 -75 -177 -75c14 189 7 91 20 288h389c-18 -107 -10 -52 -27 -165l-7 1
c4 25 3 13 5 38c0 17 -14 32 -32 32h-328l-12 -176c43 38 100 65 190 65c148 0 269 -105 269 -233s-121 -232 -269 -232z" />
    <glyph glyph-name="six" unicode="6" horiz-adv-x="629" 
d="M320 -2c-158 0 -276 90 -280 273c0 62 19 333 357 396c-32 -7 -202 -104 -236 -309c21 40 64 99 159 108c9 1 18 1 27 1c148 0 242 -116 242 -237c0 -128 -120 -232 -269 -232zM320 5c93 0 168 101 168 225c0 136 -78 225 -177 225c-55 -4 -159 -50 -159 -211
c2 -134 69 -239 168 -239z" />
    <glyph glyph-name="seven" unicode="7" horiz-adv-x="548" 
d="M302 0h-128s47 338 252 574h-326c-17 0 -32 -15 -32 -32c2 -25 2 -15 6 -38l-7 -1l-27 165h468s-206 -190 -206 -668z" />
    <glyph glyph-name="eight" unicode="8" horiz-adv-x="618" 
d="M309 -2c-149 0 -269 104 -269 232c0 114 95 208 221 228c-93 11 -161 54 -161 105c0 59 93 107 209 107c115 0 209 -48 209 -107c0 -51 -68 -94 -161 -105c126 -19 221 -114 221 -228c0 -128 -120 -232 -269 -232zM309 462c62 0 112 45 112 101s-50 101 -112 101
s-112 -45 -112 -101s50 -101 112 -101zM309 5c93 0 168 101 168 225s-75 225 -168 225s-168 -101 -168 -225s75 -225 168 -225z" />
    <glyph glyph-name="nine" unicode="9" horiz-adv-x="630" 
d="M232 -2c32 7 203 105 236 310c-21 -41 -63 -99 -159 -108c-10 -1 -19 -1 -28 -1c-146 0 -241 116 -241 236c0 128 121 232 269 232c158 0 276 -90 281 -273c0 -61 -19 -332 -358 -396zM318 210c57 4 160 51 160 213c-2 133 -72 237 -169 237c-93 0 -168 -101 -168 -225
s75 -225 168 -225h9z" />
    <glyph glyph-name="colon" unicode=":" horiz-adv-x="180" 
d="M90 161c-28 0 -50 22 -50 50c0 27 22 49 50 49c27 0 50 -22 50 -49c0 -28 -23 -50 -50 -50zM90 409c-28 0 -50 22 -50 50c0 27 22 50 50 50c27 0 50 -23 50 -50c0 -28 -23 -50 -50 -50z" />
    <glyph glyph-name="semicolon" unicode=";" horiz-adv-x="180" 
d="M49 85c39 28 41 68 41 75v1c-28 0 -50 22 -50 50c0 27 22 49 50 49c29 0 50 -23 50 -50c0 -12 -3 -86 -91 -125zM90 409c-28 0 -50 22 -50 50c0 27 22 50 50 50c27 0 50 -23 50 -50c0 -28 -23 -50 -50 -50z" />
    <glyph glyph-name="less" unicode="&#x3c;" horiz-adv-x="362" 
d="M322 177l-282 157l282 157v-8l-268 -149l268 -150v-7z" />
    <glyph glyph-name="equal" unicode="=" horiz-adv-x="321" 
d="M281 285h-241v7h241v-7zM281 376h-241v7h241v-7z" />
    <glyph glyph-name="greater" unicode="&#x3e;" horiz-adv-x="362" 
d="M40 177v7l269 150l-269 149v8l282 -157z" />
    <glyph glyph-name="question" unicode="?" horiz-adv-x="520" 
d="M244 -1c-27 0 -50 22 -50 50c0 27 23 50 50 50c28 0 50 -23 50 -50c0 -28 -22 -50 -50 -50zM248 133h-7l-12 154c0 60 29 106 97 143c58 31 81 67 81 110c0 60 -61 124 -147 124c-61 0 -100 -13 -136 -58c-12 -15 -19 -35 -19 -56c0 -17 5 -33 15 -47l29 -41l-5 -4
l-104 140c68 46 114 73 220 73c158 0 220 -91 220 -177c0 -59 -36 -119 -113 -153c-65 -28 -110 -90 -115 -160z" />
    <glyph glyph-name="at" unicode="@" horiz-adv-x="644" 
d="M322 52c-156 0 -282 126 -282 282c0 154 125 281 281 282c152 0 283 -124 283 -277c0 -105 -41 -163 -105 -163h-52c-53 0 -78 28 -78 63c-30 -48 -81 -65 -117 -65c-32 0 -105 9 -105 90c0 66 57 90 109 110l-85 61c1 2 38 59 117 59c81 -1 145 -71 145 -148v-86
c0 -65 20 -77 62 -77c39 0 71 19 85 55c11 31 17 64 17 98c-2 151 -126 273 -276 273c-153 -2 -274 -122 -274 -276c4 -159 115 -268 275 -275c78 0 149 33 199 86l4 -5c-51 -54 -123 -87 -203 -87zM261 376c41 16 76 29 76 59c0 32 -18 54 -49 54c-39 0 -64 -26 -64 -57
c0 -17 7 -34 23 -46zM276 189c47 0 93 36 93 82v137c0 28 -18 60 -43 71c8 -7 16 -19 16 -40c0 -20 -2 -32 -41 -52c-8 -4 -50 -19 -76 -47c-16 -18 -24 -43 -24 -68c3 -50 26 -83 75 -83z" />
    <glyph glyph-name="A" unicode="A" horiz-adv-x="609" 
d="M639 0h-283v6h35c25 0 43 20 43 43l-2 12l-53 174l-233 -88c-21 -8 -38 -26 -45 -48c-10 -34 -9 -18 -15 -54c0 -21 17 -39 39 -39h40v-6h-195v6h44c30 0 57 20 67 50l175 564c2 3 2 6 2 9c0 17 -14 32 -32 32h-55v7h175l184 -605c10 -33 41 -57 77 -57h32v-6zM115 142
l262 99l-114 377z" />
    <glyph glyph-name="B" unicode="B" horiz-adv-x="576" 
d="M328 0h-358v6h40c30 0 54 25 54 54v547c0 30 -24 54 -54 54h-40v7h364c111 0 157 -49 161 -118c0 -50 -33 -95 -103 -122l-156 -58h105c153 0 220 -79 220 -191c0 -110 -104 -179 -233 -179zM158 348l158 59c51 20 85 66 85 124c-5 78 -59 130 -134 130h-55
c-30 0 -54 -24 -54 -54v-259zM289 6c98 0 178 80 178 179c0 98 -80 178 -178 178c-45 0 -89 -8 -131 -23v-280c0 -29 24 -54 54 -54h77z" />
    <glyph glyph-name="C" unicode="C" horiz-adv-x="630" 
d="M348 -3c-184 0 -333 150 -333 336s149 337 333 337c92 0 176 -38 236 -99v-1l-116 -159l-6 4l28 37c15 21 22 45 22 69c0 78 -85 143 -164 143c-123 0 -225 -148 -225 -331c0 -182 104 -283 225 -305c12 -2 25 -3 39 -3c79 0 178 39 234 134l9 -5
c-59 -95 -163 -157 -282 -157z" />
    <glyph glyph-name="D" unicode="D" horiz-adv-x="627" 
d="M281 0h-311v6h41c29 0 54 25 54 54v547c0 30 -25 54 -54 54h-41v7h321c219 0 321 -150 321 -335s-107 -333 -331 -333zM268 6c162 0 237 145 237 327c0 183 -101 328 -242 328h-51c-29 0 -53 -24 -53 -54v-547c0 -29 24 -53 53 -54h56z" />
    <glyph glyph-name="E" unicode="E" horiz-adv-x="510" 
d="M500 0h-530v6h40c30 0 54 25 54 54v547c0 30 -24 54 -54 54h-40v7h530l-27 -165l-6 1l7 45c1 5 1 11 1 16c0 52 -42 96 -96 96h-167c-30 0 -54 -24 -54 -54v-237h138c39 0 71 31 71 70v33h6v-213h-6v33c0 38 -32 70 -71 70h-138v-303c0 -29 24 -54 54 -54h167
c54 0 96 44 96 96c0 5 0 11 -1 16l-7 46l6 1z" />
    <glyph glyph-name="F" unicode="F" horiz-adv-x="511" 
d="M253 0h-283v6h41c29 0 54 25 54 54v547c0 30 -25 54 -54 54h-41v7h531l-27 -165l-7 1c7 37 6 21 9 60c0 53 -42 97 -97 97h-167c-29 0 -53 -24 -53 -54v-237h138c39 0 70 31 70 70v33h7v-213h-7v33c0 38 -31 70 -70 70h-138v-303c0 -29 24 -54 53 -54h41v-6z" />
    <glyph glyph-name="G" unicode="G" horiz-adv-x="651" 
d="M348 -3c-184 0 -333 150 -333 336s149 337 333 337c93 0 176 -38 237 -99v-1l-147 -200h193v-370h-7c-9 33 -39 53 -71 53c-12 0 -25 -3 -37 -10c-49 -30 -107 -46 -168 -46zM406 23c21 0 43 2 64 9c40 13 66 50 66 92v185c0 30 -24 54 -53 54h-212v7h56
c92 0 185 67 185 150c0 82 -90 144 -164 144c-123 0 -225 -148 -225 -331c0 -198 125 -310 283 -310z" />
    <glyph glyph-name="H" unicode="H" horiz-adv-x="629" 
d="M659 0h-283v6h41c29 0 54 25 54 54v303h-313v-303c0 -29 24 -54 54 -54h41v-6h-283v6h40c30 0 54 25 54 54v547c0 30 -24 54 -54 54h-40v7h283v-7h-41c-30 0 -54 -24 -54 -54v-237h313v237c0 30 -25 54 -54 54h-41v7h283v-7h-41c-29 0 -53 -24 -53 -54v-547
c0 -29 24 -54 53 -54h41v-6z" />
    <glyph glyph-name="I" unicode="I" 
d="M253 0h-283v6h41c30 0 54 25 54 54v547c0 30 -24 54 -54 54h-41v7h283v-7h-40c-30 0 -54 -24 -54 -54v-547c0 -29 24 -54 54 -54h40v-6z" />
    <glyph glyph-name="J" unicode="J" 
d="M-67 -143v7c84 0 131 60 131 163v580c0 30 -24 54 -54 54h-40v7h283v-7h-41c-30 0 -54 -24 -54 -54v-524c0 -125 -82 -226 -225 -226z" />
    <glyph glyph-name="K" unicode="K" horiz-adv-x="571" 
d="M631 0h-38c-92 0 -175 58 -206 145l-40 115c-21 58 -75 96 -136 96c-32 0 -52 -29 -52 -57v-239c0 -29 24 -54 54 -54h40v-6h-283v6h41c30 0 54 25 54 54v547c0 30 -24 54 -54 54h-41v7h283v-7h-40c-30 0 -54 -24 -54 -54v-275l234 272c6 7 8 15 8 22c0 18 -13 35 -34 35
h-15v7h195v-7c-61 0 -107 -12 -147 -60l-206 -238h42c146 0 191 -48 216 -119l53 -149c19 -53 69 -89 126 -89v-6z" />
    <glyph glyph-name="L" unicode="L" horiz-adv-x="449" 
d="M439 0h-469v6h40c30 0 54 25 54 54v547c0 30 -24 54 -54 54h-40v7h282v-7h-40c-30 0 -54 -24 -54 -54v-547c0 -29 24 -54 54 -54h106c54 0 96 44 96 96c0 5 0 11 -1 16l-7 46l7 1z" />
    <glyph glyph-name="M" unicode="M" horiz-adv-x="695" 
d="M725 0h-282v6h40c30 0 54 25 54 54v590l-243 -604l-223 555v-541c0 -29 24 -54 54 -54h40v-6h-195v6h41c29 0 53 25 53 54v547c0 29 -22 54 -53 54h-41v7h176l195 -486l196 486h188v-7h-40c-30 0 -54 -24 -54 -54v-547c0 -29 24 -54 54 -54h40v-6z" />
    <glyph glyph-name="N" unicode="N" horiz-adv-x="596" 
d="M626 0h-177l-378 612v-552c0 -29 24 -54 54 -54h40v-6h-195v6h41c29 0 53 25 53 54v547c0 30 -24 54 -53 54h-41v7h177l378 -612v551c0 30 -24 54 -54 54h-40v7h195v-7h-41c-29 0 -53 -24 -53 -54v-547c0 -29 22 -54 53 -54h41v-6z" />
    <glyph glyph-name="O" unicode="O" horiz-adv-x="696" 
d="M348 -3c-184 0 -333 150 -333 336s149 337 333 337s333 -151 333 -337s-149 -336 -333 -336zM348 3c123 0 226 148 226 330c0 183 -103 331 -226 331s-225 -148 -225 -331c0 -182 102 -330 225 -330z" />
    <glyph glyph-name="P" unicode="P" horiz-adv-x="510" 
d="M253 0h-283v6h40c30 0 54 25 54 54v547c0 30 -24 54 -54 54h-40v7h330c134 0 195 -68 195 -152c0 -63 -36 -117 -108 -146l-229 -86v-224c0 -29 24 -54 54 -54h41v-6zM158 291l137 51c64 25 106 86 106 154c0 91 -66 165 -157 165h-32c-30 0 -54 -24 -54 -54v-316z" />
    <glyph glyph-name="Q" unicode="Q" horiz-adv-x="696" 
d="M715 -263h-3c-176 0 -301 237 -402 248l-14 1c-85 0 -124 -86 -124 -86l-6 4c2 2 34 85 137 96c-162 22 -288 163 -288 333c0 186 149 337 333 337s333 -151 333 -337c0 -173 -129 -315 -295 -334c145 -12 197 -148 330 -200c35 -14 66 -19 94 -19c103 0 159 71 159 71
l6 -5s-84 -105 -260 -109zM348 3c124 0 226 148 226 330c0 183 -102 331 -226 331c-123 0 -225 -148 -225 -331c0 -182 102 -330 225 -330z" />
    <glyph glyph-name="R" unicode="R" horiz-adv-x="541" 
d="M601 0h-53c-83 0 -158 52 -186 131l-44 124c-11 30 -39 50 -71 50c-39 0 -53 -8 -89 -21v-224c0 -29 24 -54 54 -54h40v-6h-282v6h40c30 0 54 25 54 54v547c0 30 -24 54 -54 54h-40v7h330c134 0 195 -68 195 -152c0 -63 -36 -117 -108 -146l-154 -58h76
c53 0 101 -34 119 -84l51 -143c19 -56 65 -79 122 -79v-6zM158 291l136 51c64 25 107 86 107 154c0 91 -67 165 -158 165h-31c-30 0 -54 -24 -54 -54v-316z" />
    <glyph glyph-name="S" unicode="S" horiz-adv-x="501" 
d="M260 -4l-25 1c-140 7 -218 90 -220 92l106 143l6 -4c-26 -35 -41 -53 -41 -94c0 -77 70 -129 162 -131c116 0 168 75 168 141c0 49 -49 93 -109 119l-178 77c-78 34 -114 94 -114 154c0 86 62 176 220 176c106 0 152 -27 220 -72l-104 -141l-5 4l30 41c10 14 14 30 14 47
c0 21 -7 42 -19 57c-36 44 -75 58 -136 58c-86 0 -147 -64 -147 -125c0 -44 26 -86 81 -110l200 -86c79 -35 117 -98 117 -161c0 -106 -73 -186 -226 -186z" />
    <glyph glyph-name="T" unicode="T" horiz-adv-x="547" 
d="M415 0h-283v6h41c29 0 54 25 54 54v547c0 30 -25 54 -54 54h-42c-54 0 -96 -44 -96 -97c3 -39 2 -23 9 -60l-7 -1l-27 165h527l-27 -165l-6 1l7 45c1 5 1 11 1 16c0 52 -42 96 -96 96h-42c-29 0 -53 -24 -53 -54v-547c0 -29 24 -54 53 -54h41v-6z" />
    <glyph glyph-name="U" unicode="U" horiz-adv-x="584" 
d="M292 0c-126 0 -228 102 -228 227v380c0 30 -24 54 -53 54h-41v7h283v-7h-41c-29 0 -53 -24 -53 -54v-383c0 -98 64 -197 177 -197c98 0 177 99 177 197v383c0 30 -24 54 -54 54h-40v7h195v-7h-41c-29 0 -53 -24 -53 -54v-380c0 -125 -102 -227 -228 -227z" />
    <glyph glyph-name="V" unicode="V" horiz-adv-x="609" 
d="M361 0h-98l-184 604c-11 34 -42 57 -77 57h-32v7h282v-7h-35c-24 0 -43 -20 -43 -43l2 -12l170 -556l175 561l2 11c0 21 -17 39 -39 39h-41v7h196v-7h-44c-31 0 -58 -20 -67 -49l-167 -535c-4 -12 -6 -25 -6 -38s2 -26 6 -39z" />
    <glyph glyph-name="W" unicode="W" horiz-adv-x="856" 
d="M608 0h-98l-85 281l-64 -204c-4 -13 -6 -26 -6 -39s2 -26 6 -38h-98l-184 604c-11 34 -42 57 -77 57h-32v7h529v-7h-35c-24 0 -42 -20 -42 -42c0 -4 1 -9 2 -13l169 -556l175 561c1 4 2 8 2 12c0 20 -17 38 -39 38h-40v7h195v-7h-44c-31 0 -58 -20 -67 -49l-167 -535
c-4 -13 -6 -26 -6 -40c0 -12 2 -25 6 -37zM346 50l54 176c7 22 11 45 11 67s-4 44 -10 65l-75 246c-10 34 -42 57 -77 57h-32c-24 0 -42 -20 -42 -42c0 -4 1 -9 2 -13z" />
    <glyph glyph-name="X" unicode="X" horiz-adv-x="583" 
d="M613 0h-283v6h23c22 0 39 19 39 40c0 6 -2 12 -5 18l-141 262l-144 -265c-3 -6 -4 -12 -4 -17c0 -20 15 -38 37 -38h30v-6h-195v6h22c45 0 87 25 108 65l113 209c9 17 14 35 14 53s-5 36 -13 52l-116 215c-20 38 -59 61 -102 61h-26v7h282v-7h-22c-20 0 -34 -16 -34 -34
c0 -6 1 -12 4 -17l144 -268l139 257c3 6 5 13 5 20c0 22 -17 42 -42 42h-28v7h195v-7h-26c-38 0 -74 -21 -93 -55l-118 -218c-9 -16 -13 -35 -13 -53s4 -36 13 -53l117 -218c20 -35 57 -58 97 -58h23v-6z" />
    <glyph glyph-name="Y" unicode="Y" horiz-adv-x="583" 
d="M433 0h-283v6h40c30 0 54 25 54 54v208c0 30 -7 60 -21 87l-128 247c-18 36 -55 59 -96 59h-29v7h282v-7h-30c-18 0 -31 -14 -31 -30c0 -5 1 -10 4 -15l138 -276l150 262c4 6 5 13 5 19c0 21 -16 40 -39 40h-31v7h195v-7c-56 0 -93 -9 -122 -58l-128 -224
c-16 -28 -25 -61 -25 -94v-225c0 -29 24 -54 54 -54h41v-6z" />
    <glyph glyph-name="Z" unicode="Z" horiz-adv-x="487" 
d="M477 0h-467l356 661h-235c-54 0 -96 -44 -96 -96c0 -5 0 -11 1 -16l7 -45l-6 -1l-27 165h467l-357 -662h235c55 0 97 45 97 97c-3 40 -2 23 -9 61l7 1z" />
    <glyph glyph-name="bracketleft" unicode="[" horiz-adv-x="291" 
d="M251 -51h-211v769h211v-7h-117v-755h117v-7z" />
    <glyph glyph-name="backslash" unicode="\" horiz-adv-x="359" 
d="M319 0h-7l-272 668h7z" />
    <glyph glyph-name="bracketright" unicode="]" horiz-adv-x="291" 
d="M251 -51h-211v7h117v755h-117v7h211v-769z" />
    <glyph glyph-name="asciicircum" unicode="^" horiz-adv-x="245" 
d="M202 731l-80 62l-79 -62l-3 4l82 82l83 -82z" />
    <glyph glyph-name="underscore" unicode="_" horiz-adv-x="496" 
d="M456 0h-416v6h416v-6z" />
    <glyph glyph-name="grave" unicode="`" horiz-adv-x="183" 
d="M139 731l-99 78l9 10l94 -84z" />
    <glyph glyph-name="a" unicode="a" horiz-adv-x="482" 
d="M149 -4c-47 0 -164 14 -164 135c0 175 291 149 291 254c0 50 -35 80 -73 80c-55 0 -103 -38 -103 -87c0 -34 16 -47 48 -71l-4 -5l-114 83c1 2 55 87 172 87c119 0 216 -96 216 -215v-197c0 -29 24 -53 54 -53h40v-7h-188v93c-46 -71 -121 -97 -175 -97zM182 19
c73 0 142 56 142 122v203c0 44 -23 84 -65 107c12 -12 25 -30 25 -62c0 -28 -8 -48 -62 -76c-12 -6 -74 -27 -112 -69c-25 -26 -36 -62 -36 -98c0 -47 18 -100 65 -119c13 -5 28 -8 43 -8z" />
    <glyph glyph-name="b" unicode="b" horiz-adv-x="488" 
d="M328 -3c-81 0 -148 73 -169 172v-169h-189v7h41c30 0 54 24 54 53v547c0 30 -24 54 -54 54h-41v7c75 8 122 17 189 53v-422c21 100 88 173 169 173c97 0 175 -107 175 -238s-78 -237 -175 -237zM293 22c65 0 116 91 116 212c0 122 -51 205 -116 205
c-60 -4 -134 -71 -134 -204c0 -127 63 -204 125 -212z" />
    <glyph glyph-name="c" unicode="c" horiz-adv-x="398" 
d="M210 -4c-124 0 -225 107 -225 238c0 132 101 238 225 238c86 0 161 -51 199 -125l-163 -79l-3 6l31 15c25 12 41 38 41 64c0 10 -2 20 -7 30c-23 50 -59 82 -98 82c-71 0 -128 -103 -128 -231c0 -137 72 -214 159 -214c59 0 129 33 165 114l7 -4
c-36 -79 -114 -134 -203 -134z" />
    <glyph glyph-name="d" unicode="d" horiz-adv-x="487" 
d="M160 -3c-97 0 -175 106 -175 237s78 238 175 238c80 0 148 -73 169 -173v308c0 30 -24 54 -54 54h-40v7c75 8 121 17 188 53v-661c0 -29 24 -53 54 -53h40v-7h-188v169c-21 -99 -89 -172 -169 -172zM194 30c66 5 135 70 135 204c0 137 -73 200 -137 205
c-63 0 -114 -84 -114 -205s52 -204 116 -204z" />
    <glyph glyph-name="e" unicode="e" horiz-adv-x="399" 
d="M211 -4c-125 0 -226 107 -226 238c0 132 101 238 226 238c86 0 161 -51 199 -125l-303 -148c-11 -5 -18 -17 -18 -29l1 -7c19 -90 80 -143 152 -143c58 0 128 33 165 114l7 -4c-37 -79 -114 -134 -203 -134zM85 197l189 92c26 12 41 38 41 65c0 10 -2 20 -6 29
c-24 50 -59 82 -98 82c-71 0 -128 -103 -128 -231c0 -13 0 -25 2 -37z" />
    <glyph glyph-name="f" unicode="f" horiz-adv-x="275" 
d="M252 0h-282v7h40c30 0 54 24 54 53v402h-67v7h67v71c0 85 56 128 134 128h107l-26 -165l-7 1l7 45c2 10 3 20 3 29c0 46 -22 83 -71 83c-29 0 -53 -24 -53 -53v-139h94v-7h-94v-402c0 -29 24 -53 54 -53h40v-7z" />
    <glyph glyph-name="g" unicode="g" horiz-adv-x="445" 
d="M215 -229h-11c-47 0 -216 6 -232 101l-2 20c0 52 35 90 102 111l3 -4s-27 -26 -27 -74c0 -13 2 -28 7 -44c19 -64 89 -97 183 -97c37 0 72 5 107 17c29 10 95 45 95 104c0 8 -1 17 -4 26c-19 61 -77 76 -166 76l-99 -2c-119 0 -182 27 -182 88c0 15 4 29 11 40
c18 28 60 42 87 49c-47 29 -77 75 -77 127c0 90 92 163 205 163c16 0 41 -3 56 -6c-8 6 -19 22 -19 43c0 26 23 73 94 73c27 0 60 -7 99 -27l-21 -133l-7 1c2 14 3 16 3 29c0 60 -45 101 -101 103c-14 0 -59 -10 -59 -49c0 -18 11 -36 34 -47c71 -32 125 -83 125 -150
c0 -91 -91 -163 -204 -163c-45 0 -86 11 -120 31c-16 -3 -34 -10 -55 -20c-7 -4 -24 -15 -24 -29c0 -18 33 -38 76 -38c48 0 115 15 184 15c43 0 86 -6 121 -27c60 -35 78 -77 78 -116c0 -53 -34 -99 -40 -108c-61 -83 -212 -83 -220 -83zM215 153c52 0 104 69 104 155
c0 87 -52 157 -104 157s-104 -70 -104 -157c0 -86 52 -155 104 -155z" />
    <glyph glyph-name="h" unicode="h" horiz-adv-x="554" 
d="M584 0h-189v249c-4 113 -54 190 -116 190c-59 -4 -119 -68 -120 -201v-178c0 -29 24 -53 53 -53h41v-7h-283v7h41c29 0 53 24 53 53v547c0 30 -24 54 -53 54h-41v7c76 8 122 17 189 53v-411c24 100 72 162 155 162c109 0 175 -107 175 -238v-174c0 -29 25 -53 54 -53h41
v-7z" />
    <glyph glyph-name="i" unicode="i" 
d="M253 0h-283v7h41c29 0 53 24 53 53v296c0 29 -24 53 -53 53h-41v7c75 8 122 17 188 53v-409c0 -29 25 -53 54 -53h41v-7zM111 499c-30 0 -54 25 -54 55s24 55 54 55c31 0 55 -25 55 -55s-24 -55 -55 -55z" />
    <glyph glyph-name="j" unicode="j" horiz-adv-x="151" 
d="M-23 -226h-26v7c63 0 113 41 113 106v469c0 29 -24 53 -54 53h-40v7c75 8 121 17 188 53v-514c0 -100 -81 -181 -181 -181zM111 499c-30 0 -55 25 -55 55s25 55 55 55s55 -25 55 -55s-25 -55 -55 -55z" />
    <glyph glyph-name="k" unicode="k" horiz-adv-x="545" 
d="M575 0h-282v7h25c21 0 37 17 37 36c0 6 -2 12 -5 18l-120 227l-38 -39c-21 -21 -33 -50 -33 -80v-109c0 -29 24 -53 54 -53h40v-7h-283v7h41c30 0 54 24 54 53v547c0 30 -24 54 -54 54h-41v7c76 8 122 17 189 53v-496l185 187c6 6 8 13 8 21c0 25 -18 29 -46 29v7h195v-7
c-104 0 -128 -30 -202 -104l157 -294c25 -48 63 -57 119 -57v-7z" />
    <glyph glyph-name="l" unicode="l" 
d="M253 0h-283v7h41c29 0 53 24 53 53v547c0 30 -24 54 -53 54h-41v7c75 8 122 17 189 53v-661c0 -29 24 -53 53 -53h41v-7z" />
    <glyph glyph-name="m" unicode="m" horiz-adv-x="885" 
d="M915 0h-189v249c-4 113 -54 190 -116 190c-59 -4 -119 -68 -120 -201v-178c0 -29 24 -53 53 -53h41v-7h-283v7h41c29 0 53 24 53 53v190c-4 113 -54 189 -115 189c-60 -4 -120 -68 -121 -201v-178c0 -29 24 -53 54 -53h40v-7h-283v7h41c30 0 54 24 54 53v296
c0 29 -24 53 -54 53h-41v7c76 8 122 17 189 53v-159c24 100 72 162 155 162c91 0 153 -76 171 -177c0 0 25 177 160 177c109 0 175 -107 175 -238v-174c0 -29 25 -53 54 -53h41v-7z" />
    <glyph glyph-name="n" unicode="n" horiz-adv-x="553" 
d="M583 0h-188v249c-4 113 -54 190 -116 190c-60 -4 -120 -68 -121 -201v-178c0 -29 24 -53 54 -53h40v-7h-282v7h40c30 0 54 24 54 53v296c0 29 -24 53 -54 53h-40v7c75 8 123 17 188 53v-159c24 100 72 162 155 162c109 0 176 -107 176 -238v-174c0 -29 24 -53 54 -53h40
v-7z" />
    <glyph glyph-name="o" unicode="o" horiz-adv-x="421" 
d="M211 -4c-125 0 -226 107 -226 238c0 132 101 238 226 238c124 0 225 -106 225 -238c0 -131 -101 -238 -225 -238zM211 3c70 0 128 104 128 231c0 128 -58 231 -128 231c-71 0 -129 -103 -129 -231c0 -127 58 -231 129 -231z" />
    <glyph glyph-name="p" unicode="p" horiz-adv-x="488" 
d="M253 -252h-283v7h41c29 0 53 24 53 54v547c0 29 -24 53 -53 53h-41v7c75 8 122 17 189 53v-170c20 100 88 173 168 173c97 0 176 -107 176 -238s-79 -237 -176 -237c-80 0 -148 73 -168 172v-360c0 -30 24 -54 53 -54h41v-7zM293 30c65 0 116 83 116 204
c0 124 -52 204 -118 204c-60 -2 -132 -71 -132 -203c0 -128 65 -198 125 -204z" />
    <glyph glyph-name="q" unicode="q" horiz-adv-x="487" 
d="M517 -252h-282v7h40c30 0 54 24 54 54v360c-21 -99 -89 -172 -169 -172c-97 0 -175 106 -175 237s78 238 175 238c80 0 148 -73 169 -173v170c66 -36 113 -45 188 -53v-7h-40c-30 0 -54 -24 -54 -53v-547c0 -30 24 -54 54 -54h40v-7zM195 30c65 4 134 69 134 204
c0 133 -71 202 -132 204c-66 0 -119 -80 -119 -204c0 -121 52 -204 117 -204z" />
    <glyph glyph-name="r" unicode="r" horiz-adv-x="408" 
d="M252 0h-282v7h40c30 0 54 24 54 53v296c0 29 -24 53 -54 53h-40v7c76 8 122 17 188 53v-161c24 99 59 164 142 164c69 0 113 -49 138 -124l-164 -80l-3 6c47 23 71 37 71 87c0 39 -26 77 -72 77c-54 0 -111 -75 -112 -200v-178c0 -29 24 -53 54 -53h40v-7z" />
    <glyph glyph-name="s" unicode="s" horiz-adv-x="374" 
d="M197 -4c-212 0 -202 152 -203 154l117 49l4 -6c-35 -13 -47 -35 -47 -71c4 -68 52 -119 129 -119c18 0 116 7 116 94c-1 39 -32 71 -102 92l-114 34c-73 26 -103 66 -103 112c0 52 47 137 194 137c84 0 146 -29 176 -88l-143 -59l-3 6c33 14 51 30 51 63
c0 38 -33 71 -81 71c-15 0 -37 -3 -50 -9c-35 -16 -56 -45 -56 -74c0 -31 25 -63 81 -79l107 -30c95 -27 119 -79 119 -132c0 -35 -35 -145 -192 -145z" />
    <glyph glyph-name="t" unicode="t" horiz-adv-x="266" 
d="M166 -8h-4c-118 0 -125 98 -125 135v331h-67v6h67v67l94 94v-161h94v-6h-94v-347c0 -65 28 -96 70 -96c12 0 23 2 34 8c52 29 53 95 53 95h8c-11 -120 -109 -126 -130 -126z" />
    <glyph glyph-name="u" unicode="u" horiz-adv-x="553" 
d="M240 -3c-109 0 -176 107 -176 238v121c0 29 -24 53 -54 53h-40v7c76 8 123 17 188 53v-249c4 -113 54 -190 116 -190c60 4 119 68 121 201v125c0 29 -24 53 -54 53h-40v7c76 8 123 17 188 53v-409c0 -29 24 -53 54 -53h40v-7h-188v159c-24 -100 -73 -162 -155 -162z" />
    <glyph glyph-name="v" unicode="v" horiz-adv-x="547" 
d="M334 0h-101l-153 400c-14 38 -50 62 -90 62h-20v7h283v-7h-17c-31 0 -54 -25 -54 -54c0 -6 1 -13 3 -19l132 -345l133 351c2 6 3 11 3 17c0 26 -21 50 -49 50h-22v7h195v-7h-21c-44 0 -83 -27 -99 -68l-123 -324c-4 -11 -7 -23 -7 -35s3 -24 7 -35z" />
    <glyph glyph-name="w" unicode="w" horiz-adv-x="790" 
d="M576 0h-100l-85 222l-58 -152c-4 -11 -6 -23 -6 -35s2 -24 6 -35h-101l-152 400c-14 38 -50 62 -90 62h-20v7h525v-7h-17c-30 0 -53 -25 -53 -54c0 -6 1 -13 3 -19l131 -345l134 351c2 6 3 11 3 17c0 26 -21 50 -50 50h-21v7h195v-7h-21c-44 0 -84 -27 -99 -68l-124 -324
c-4 -11 -6 -23 -6 -35s2 -24 6 -35zM316 44l55 145c6 14 8 28 8 42s-2 29 -8 42l-48 127c-14 37 -35 62 -89 62c-30 0 -52 -25 -52 -54c0 -6 1 -13 3 -19z" />
    <glyph glyph-name="x" unicode="x" horiz-adv-x="543" 
d="M573 0h-283v7h19c20 0 34 16 34 34c0 6 -2 12 -6 18l-115 170l-112 -166c-4 -6 -6 -13 -6 -20c0 -19 15 -36 36 -36h25v-7h-195v7c60 0 98 6 132 56l90 134c8 11 12 25 12 38c0 14 -4 27 -12 39l-87 129c-35 50 -76 59 -135 59v7h282v-7c-29 0 -49 -3 -49 -29
c0 -5 2 -11 5 -16l121 -177l108 162c5 7 7 14 7 22c0 20 -16 38 -39 38h-27v7h195v-7c-55 0 -96 -13 -127 -59l-87 -130c-8 -12 -12 -26 -12 -39c0 -14 4 -27 12 -39l90 -132c30 -46 70 -56 124 -56v-7z" />
    <glyph glyph-name="y" unicode="y" horiz-adv-x="547" 
d="M62 -252h-54l27 165l6 -1c-3 -20 -3 -11 -4 -31c0 -21 17 -39 38 -39h85c48 0 91 30 109 75c7 20 10 19 10 37c0 25 -20 46 -46 46l-152 400c-15 38 -50 62 -90 62h-21v7h283v-7h-17c-31 0 -54 -24 -54 -53c0 -6 1 -13 4 -20l131 -345l133 351c2 6 4 12 4 18
c0 26 -22 49 -50 49h-22v7h195v-7h-21c-44 0 -83 -27 -99 -68l-192 -506c-32 -84 -113 -140 -203 -140z" />
    <glyph glyph-name="z" unicode="z" horiz-adv-x="492" 
d="M456 0h-426l313 462h-186c-54 0 -96 -44 -96 -96c0 -5 0 -11 1 -16l7 -45l-6 -1l-27 165h426l-313 -462h186c54 0 96 44 96 96c0 5 0 11 -1 16l-7 45l6 1z" />
    <glyph glyph-name="braceleft" unicode="{" horiz-adv-x="395" 
d="M355 -51h-52c-88 0 -159 72 -159 160v77c0 56 -31 107 -80 134l-24 14l25 13c48 27 79 79 79 135v76c0 89 71 160 159 160h52v-7c-65 0 -117 -44 -117 -111v-31c0 -82 -45 -158 -117 -198l-67 -37l67 -38c72 -40 117 -116 117 -198v-31c0 -67 52 -111 117 -111v-7z" />
    <glyph glyph-name="bar" unicode="|" horiz-adv-x="86" 
d="M46 0h-6v668h6v-668z" />
    <glyph glyph-name="braceright" unicode="}" horiz-adv-x="395" 
d="M91 -51h-51v7c65 0 117 44 117 111v31c0 82 45 158 117 198l67 38l-67 37c-72 40 -117 116 -117 198v31c0 67 -52 111 -117 111v7h51c89 0 160 -71 160 -160v-76c0 -56 31 -108 79 -135l25 -13l-25 -14c-48 -27 -79 -78 -79 -134v-77c0 -88 -71 -160 -160 -160z" />
    <glyph glyph-name="asciitilde" unicode="~" horiz-adv-x="225" 
d="M149 313c-33 6 -31 15 -58 28l-16 4c-31 -8 -24 -6 -35 -19c7 17 3 11 17 23c12 6 16 6 30 6c20 -5 14 -4 30 -14c17 -12 9 -7 25 -15c4 -1 8 -2 12 -2c19 0 31 18 31 18s-8 -22 -29 -28z" />
    <glyph glyph-name="exclamdown" unicode="&#xa1;" horiz-adv-x="180" 
d="M90 284c-28 0 -50 22 -50 50c0 27 22 50 50 50c27 0 50 -23 50 -50c0 -28 -23 -50 -50 -50zM137 -285h-94l43 535h7z" />
    <glyph glyph-name="cent" unicode="&#xa2;" horiz-adv-x="695" 
d="M377 -92h-7v88c-182 2 -330 152 -330 337s148 336 330 337v83h7v-83c91 -1 173 -39 233 -100l-117 -159l-6 4l28 37c15 21 22 45 22 69c0 81 -89 141 -160 142v-635c11 -2 23 -3 36 -3c80 0 177 40 234 134l8 -5c-58 -94 -161 -156 -278 -157v-89zM370 29v634
c-122 -2 -222 -149 -222 -330s102 -281 222 -304z" />
    <glyph glyph-name="sterling" unicode="&#xa3;" horiz-adv-x="550" 
d="M510 0h-470v6h40c30 0 54 25 54 54v270h-72v7h72v135c0 108 87 196 195 196h126l-27 -165l-7 1c7 37 6 21 9 60c0 53 -42 97 -96 97c-59 0 -106 -47 -106 -105v-219h142v-7h-142v-270c0 -29 24 -54 54 -54h106c55 0 97 45 97 97c-3 40 -2 23 -9 61l7 1z" />
    <glyph glyph-name="currency" unicode="&#xa4;" horiz-adv-x="353" 
d="M308 197l-47 47c-22 -21 -52 -34 -85 -34c-32 0 -62 13 -85 34l-46 -47l-5 5l47 47c-21 22 -34 52 -34 85s13 63 34 85l-47 46l5 5l46 -47c23 21 53 34 85 34c33 0 63 -13 85 -34l47 47l5 -5l-47 -46c21 -22 34 -52 34 -85s-13 -63 -34 -85l47 -47zM176 217
c64 0 117 51 117 117c0 62 -50 117 -117 117s-117 -55 -117 -117c0 -66 55 -117 117 -117z" />
    <glyph glyph-name="yen" unicode="&#xa5;" horiz-adv-x="723" 
d="M503 0h-283v6h41c29 0 54 25 54 54v160h-108v7h108c0 33 -1 29 -1 52h-107v7h107c-3 24 -9 47 -21 69l-127 247c-19 36 -56 59 -97 59h-29v7h283v-7h-30c-18 0 -31 -15 -31 -31c0 -5 1 -9 3 -14l138 -276l150 262c4 6 5 13 5 19c0 21 -16 40 -39 40h-31v7h195v-7
c-56 0 -93 -9 -122 -58l-127 -224c-17 -28 -25 -60 -25 -93h107v-7h-107v-52h107v-7h-107v-160c0 -29 24 -54 53 -54h41v-6z" />
    <glyph glyph-name="brokenbar" unicode="&#xa6;" horiz-adv-x="86" 
d="M46 379h-6v289h6v-289zM46 0h-6v289h6v-289z" />
    <glyph glyph-name="section" unicode="&#xa7;" horiz-adv-x="448" 
d="M230 -1l-19 1c-109 6 -170 71 -171 72c57 77 27 38 83 112l4 -3c-21 -29 -32 -41 -32 -73c0 -60 54 -101 127 -103c91 0 132 59 132 111c0 38 -39 72 -86 93l-140 60c-60 24 -88 77 -88 120c0 26 7 52 23 75c-16 21 -23 45 -23 69c0 67 48 138 171 138
c83 0 119 -21 173 -57l-82 -110l-4 3c15 22 8 11 24 32c8 11 11 24 11 37c0 16 -6 32 -15 44c-28 35 -59 46 -107 46c-67 0 -114 -50 -114 -97c0 -28 8 -48 38 -73c7 -5 15 -10 25 -14l169 -73c2 -2 4 -3 6 -4c49 -28 73 -72 73 -116c0 -28 -7 -54 -20 -76
c13 -21 20 -44 20 -67c0 -84 -57 -147 -178 -147zM353 250l1 9c0 38 -39 73 -86 93l-140 61c-11 5 -22 11 -31 17v-6c0 -34 20 -67 63 -85l156 -68c14 -6 26 -13 37 -21z" />
    <glyph glyph-name="dieresis" unicode="&#xa8;" horiz-adv-x="295" 
d="M90 731c-28 0 -50 22 -50 49c0 28 22 50 50 50c27 0 50 -22 50 -50c0 -27 -23 -49 -50 -49zM205 731c-28 0 -50 22 -50 49c0 28 22 50 50 50c27 0 50 -22 50 -50c0 -27 -23 -49 -50 -49z" />
    <glyph glyph-name="copyright" unicode="&#xa9;" horiz-adv-x="644" 
d="M336 157c-97 0 -175 79 -175 177c0 97 78 176 175 176c48 0 92 -20 124 -52l-61 -84l-3 2c16 23 26 29 26 56c0 42 -46 75 -86 75c-65 0 -118 -78 -118 -173c0 -98 61 -162 139 -162c41 0 92 21 122 70l5 -2c-31 -50 -86 -83 -148 -83zM322 52c-155 0 -282 126 -282 282
c0 155 127 282 282 282c156 0 282 -127 282 -282c0 -156 -126 -282 -282 -282zM322 59c152 0 276 123 276 275c0 151 -124 275 -276 275c-151 0 -275 -124 -275 -275c0 -152 124 -275 275 -275z" />
    <glyph glyph-name="ordfeminine" unicode="&#xaa;" horiz-adv-x="262" 
d="M97 505c-17 0 -57 5 -57 47c0 34 32 46 59 56l-44 32c1 1 19 30 60 30s75 -33 75 -75v-67c0 -11 8 -19 18 -19h14v-2h-65v32c-16 -25 -42 -34 -60 -34zM101 609c27 10 39 16 39 36c-1 13 -12 23 -25 23c-20 0 -33 -14 -33 -30c0 -9 4 -17 12 -23zM108 513
c26 0 49 19 49 42v71c0 19 -8 26 -22 37c4 -4 8 -10 8 -20c0 -11 0 -17 -21 -28c-4 -2 -26 -10 -39 -24c-9 -9 -13 -22 -13 -34c2 -25 12 -44 38 -44z" />
    <glyph glyph-name="guillemotleft" unicode="&#xab;" horiz-adv-x="354" 
d="M314 211l-164 123l164 122v-8l-152 -114l152 -114v-9zM204 211l-164 123l164 122v-8l-152 -114l152 -114v-9z" />
    <glyph glyph-name="logicalnot" unicode="&#xac;" horiz-adv-x="529" 
d="M489 271h-7v119h-442v6h449v-125z" />
    <glyph glyph-name="registered" unicode="&#xae;" horiz-adv-x="644" 
d="M488 159h-28c-44 0 -83 27 -97 68l-24 66c-5 15 -20 26 -37 26c-20 0 -28 -4 -47 -11v-118c0 -15 13 -28 29 -28h21v-3h-148v3h21c15 0 28 13 28 28v287c0 16 -13 28 -28 28h-21v4h173c70 0 102 -36 102 -80c0 -33 -19 -61 -57 -76l-80 -31h39c29 0 54 -17 63 -44l27 -75
c10 -29 34 -41 64 -41v-3zM255 311l72 27c34 13 56 45 56 81c0 48 -35 86 -83 86c-25 0 -45 -2 -45 -28v-166zM322 52c-155 0 -282 126 -282 282c0 155 127 282 282 282c156 0 282 -127 282 -282c0 -156 -126 -282 -282 -282zM322 59c152 0 276 123 276 275
s-124 275 -276 275c-151 0 -275 -123 -275 -275s124 -275 275 -275z" />
    <glyph glyph-name="macron" unicode="&#xaf;" horiz-adv-x="220" 
d="M180 731h-140v14h140v-14z" />
    <glyph glyph-name="degree" unicode="&#xb0;" horiz-adv-x="173" 
d="M86 731c-26 0 -46 21 -46 46c0 26 20 47 46 47s47 -21 47 -47c0 -25 -21 -46 -47 -46zM86 737c22 0 33 18 33 40s-11 40 -33 40s-33 -18 -33 -40s11 -40 33 -40z" />
    <glyph glyph-name="plusminus" unicode="&#xb1;" horiz-adv-x="321" 
d="M164 234h-7v117h-117v7h117v117h7v-117h117v-7h-117v-117zM281 196h-241v7h241v-7z" />
    <glyph glyph-name="twosuperior" unicode="&#xb2;" horiz-adv-x="203" 
d="M163 506h-121l10 23c40 23 86 43 86 88c0 31 -16 52 -39 52c-16 0 -37 -18 -37 -37c0 -12 5 -17 16 -25l-2 -1l-36 32c10 20 34 32 59 32c37 0 64 -19 64 -51c0 -5 -2 -27 -29 -44c-45 -29 -69 -41 -78 -46h92c4 0 8 4 8 8l-1 10h1z" />
    <glyph glyph-name="threesuperior" unicode="&#xb3;" horiz-adv-x="205" 
d="M99 506c-25 0 -47 13 -58 31c-1 0 -1 1 -1 1l37 33l1 -2c-10 -7 -15 -12 -15 -25c0 -20 20 -36 36 -36c23 0 42 24 42 55c0 30 -17 55 -42 55c-9 0 -18 -12 -20 -12l-1 1l42 40h-59c-4 0 -8 -3 -8 -7l1 -10h-1l-7 40h101l-54 -51c41 0 72 -21 72 -56
c0 -32 -29 -57 -66 -57z" />
    <glyph glyph-name="acute" unicode="&#xb4;" horiz-adv-x="183" 
d="M43 731l-3 4l93 84l10 -10z" />
    <glyph glyph-name="mu" unicode="&#xb5;" horiz-adv-x="553" 
d="M158 220c3 -57 15 -103 37 -138c21 -35 48 -52 79 -52c31 2 59 19 83 52c23 33 36 82 38 149v125c0 15 -5 27 -15 38c-11 10 -24 15 -39 15h-40v7c37 3 69 9 98 16c28 7 58 20 90 37v-409c0 -15 5 -27 16 -37c11 -11 23 -16 38 -16h40v-7h-188v159
c-12 -51 -30 -90 -55 -119s-59 -43 -100 -43c-31 0 -58 8 -82 23v-130c0 -15 5 -27 16 -37c11 -11 23 -16 38 -16h41v-7h-283v7h41c15 0 27 5 38 16c10 10 15 22 15 37v466c0 15 -5 27 -15 38c-11 10 -24 15 -39 15h-40v7c37 3 69 9 98 16c28 7 58 20 90 37v-249z" />
    <glyph glyph-name="paragraph" unicode="&#xb6;" horiz-adv-x="471" 
d="M391 0h-94v661h-31v-661h-7v358h-64c-86 0 -155 69 -155 155c0 83 66 152 150 155h241v-7h-40v-661z" />
    <glyph glyph-name="periodcentered" unicode="&#xb7;" horiz-adv-x="180" 
d="M90 284c-28 0 -50 22 -50 50c0 27 22 50 50 50s50 -23 50 -50c0 -28 -22 -50 -50 -50z" />
    <glyph glyph-name="periodcentered" unicode="&#x2219;" horiz-adv-x="180" 
d="M90 284c-28 0 -50 22 -50 50c0 27 22 50 50 50s50 -23 50 -50c0 -28 -22 -50 -50 -50z" />
    <glyph glyph-name="cedilla" unicode="&#xb8;" horiz-adv-x="248" 
d="M123 -207c-40 0 -73 19 -83 44l15 7c9 -23 31 -45 68 -45c43 0 70 25 70 54c0 31 -28 54 -70 54h-4v129h7v-122c45 -2 82 -28 82 -61s-38 -60 -85 -60z" />
    <glyph glyph-name="onesuperior" unicode="&#xb9;" horiz-adv-x="149" 
d="M109 506h-69v2h10c7 0 13 6 13 13v121c0 7 -6 13 -13 13h-10v2c18 2 30 4 46 13v-149c0 -7 6 -13 13 -13h10v-2z" />
    <glyph glyph-name="ordmasculine" unicode="&#xba;" horiz-adv-x="216" 
d="M108 506c-38 0 -68 37 -68 82c0 46 30 83 68 83c37 0 68 -37 68 -83c0 -45 -31 -82 -68 -82zM108 508c24 0 43 36 43 80c0 45 -19 81 -43 81s-44 -36 -44 -81c0 -44 20 -80 44 -80z" />
    <glyph glyph-name="guillemotright" unicode="&#xbb;" horiz-adv-x="354" 
d="M40 211v9l152 114l-152 114v8l164 -122zM150 211v9l152 114l-152 114v8l164 -122z" />
    <glyph glyph-name="onequarter" unicode="&#xbc;" horiz-adv-x="483" 
d="M69 0h-7l272 668h7zM169 364h-129v3h19c13 0 24 11 24 24v225c0 14 -11 25 -24 25h-19v3c34 3 56 7 86 24v-277c0 -13 11 -24 25 -24h18v-3zM443 0h-129v3h18c14 0 25 11 25 24v62h-155c10 15 62 48 62 140c0 17 -2 36 -7 57l52 18s-10 -133 -100 -212h148v140l43 13
v-153h43v-3h-43v-62c0 -13 11 -24 24 -24h19v-3z" />
    <glyph glyph-name="onehalf" unicode="&#xbd;" horiz-adv-x="507" 
d="M68 0h-7l272 668h7zM168 364h-128v3h18c14 0 25 11 25 24v225c0 14 -11 25 -25 25h-18v3c33 3 55 7 85 24v-277c0 -13 11 -24 25 -24h18v-3zM467 -1h-226l20 42c77 45 159 78 159 164c0 56 -29 95 -72 95c-31 0 -68 -30 -68 -67c0 -23 10 -32 28 -48c0 -1 -1 -1 -2 -2
c-46 42 -21 20 -68 60l1 3c21 34 62 58 109 58c68 0 119 -37 119 -96c0 -9 -4 -50 -53 -81c-84 -54 -130 -77 -147 -86h172c8 0 15 7 15 15c-1 12 0 4 -3 17l3 1z" />
    <glyph glyph-name="threequarters" unicode="&#xbe;" horiz-adv-x="570" 
d="M151 363c-56 0 -88 25 -111 60l68 60c2 0 1 0 3 -2h-1c-18 -16 -28 -26 -28 -47c0 -7 2 -14 5 -21c13 -28 37 -47 64 -47c42 0 77 46 77 102c0 57 -31 103 -77 103c-20 0 -23 -9 -38 -22l-2 2l79 74h-111c-8 0 -15 -7 -15 -15l3 -17h-3c-9 49 -5 23 -13 75h189
c-69 -64 -32 -29 -100 -95c3 1 7 1 11 1c68 0 122 -47 122 -106c0 -58 -54 -105 -122 -105zM156 0h-7l272 668h7zM530 0h-129v3h19c13 0 24 11 24 24v62h-155c10 15 62 48 62 140c0 17 -2 36 -7 57l52 18s-10 -133 -100 -212h148v140l43 13v-153h43v-3h-43v-62
c0 -13 11 -24 24 -24h19v-3z" />
    <glyph glyph-name="questiondown" unicode="&#xbf;" horiz-adv-x="520" 
d="M276 284c-28 0 -50 22 -50 50s22 50 50 50c27 0 50 -22 50 -50s-23 -50 -50 -50zM260 -288c-158 0 -220 91 -220 177c0 59 36 119 114 153c64 28 109 90 114 160l4 48h7l12 -154c0 -60 -29 -107 -97 -143c-57 -30 -81 -66 -81 -110c0 -60 61 -124 147 -124
c61 0 100 13 136 58c12 15 19 36 19 57c0 16 -4 33 -14 46l-30 41l5 4l104 -140c-68 -46 -114 -73 -220 -73z" />
    <glyph glyph-name="Agrave" unicode="&#xc0;" horiz-adv-x="609" 
d="M639 0h-283v6h35c25 0 43 20 43 43l-2 12l-53 174l-233 -88c-21 -8 -38 -26 -45 -48c-10 -34 -9 -18 -15 -54c0 -21 17 -39 39 -39h40v-6h-195v6h44c30 0 57 20 67 50l175 564c2 3 2 6 2 9c0 17 -14 32 -32 32h-55v7h175l184 -605c10 -33 41 -57 77 -57h32v-6zM115 142
l262 99l-114 377zM322 731l-99 78l9 10l94 -84z" />
    <glyph glyph-name="Aacute" unicode="&#xc1;" horiz-adv-x="609" 
d="M639 0h-283v6h35c25 0 43 20 43 43l-2 12l-53 174l-233 -88c-21 -8 -38 -26 -45 -48c-10 -34 -9 -18 -15 -54c0 -21 17 -39 39 -39h40v-6h-195v6h44c30 0 57 20 67 50l175 564c2 3 2 6 2 9c0 17 -14 32 -32 32h-55v7h175l184 -605c10 -33 41 -57 77 -57h32v-6zM115 142
l262 99l-114 377zM260 731l-3 4l93 84l10 -10z" />
    <glyph glyph-name="Acircumflex" unicode="&#xc2;" horiz-adv-x="609" 
d="M639 0h-283v6h35c25 0 43 20 43 43l-2 12l-53 174l-233 -88c-21 -8 -38 -26 -45 -48c-10 -34 -9 -18 -15 -54c0 -21 17 -39 39 -39h40v-6h-195v6h44c30 0 57 20 67 50l175 564c2 3 2 6 2 9c0 17 -14 32 -32 32h-55v7h175l184 -605c10 -33 41 -57 77 -57h32v-6zM115 142
l262 99l-114 377zM371 731l-80 62l-79 -62l-3 4l82 82l83 -82z" />
    <glyph glyph-name="Atilde" unicode="&#xc3;" horiz-adv-x="609" 
d="M639 0h-283v6h35c25 0 43 20 43 43l-2 12l-53 174l-233 -88c-21 -8 -38 -26 -45 -48c-10 -34 -9 -18 -15 -54c0 -21 17 -39 39 -39h40v-6h-195v6h44c30 0 57 20 67 50l175 564c2 3 2 6 2 9c0 17 -14 32 -32 32h-55v7h175l184 -605c10 -33 41 -57 77 -57h32v-6zM115 142
l262 99l-114 377zM327 730c-33 6 -31 15 -58 28l-16 4c-31 -8 -24 -6 -35 -19c7 17 3 11 17 23c12 6 16 6 30 6c20 -5 14 -4 30 -14c17 -12 9 -7 25 -15c4 -1 8 -2 12 -2c19 0 31 18 31 18s-8 -22 -29 -28z" />
    <glyph glyph-name="Adieresis" unicode="&#xc4;" horiz-adv-x="609" 
d="M639 0h-283v6h35c25 0 43 20 43 43l-2 12l-53 174l-233 -88c-21 -8 -38 -26 -45 -48c-10 -34 -9 -18 -15 -54c0 -21 17 -39 39 -39h40v-6h-195v6h44c30 0 57 20 67 50l175 564c2 3 2 6 2 9c0 17 -14 32 -32 32h-55v7h175l184 -605c10 -33 41 -57 77 -57h32v-6zM115 142
l262 99l-114 377zM234 731c-28 0 -50 22 -50 49c0 28 22 50 50 50c27 0 50 -22 50 -50c0 -27 -23 -49 -50 -49zM349 731c-28 0 -50 22 -50 49c0 28 22 50 50 50c27 0 50 -22 50 -50c0 -27 -23 -49 -50 -49z" />
    <glyph glyph-name="Aring" unicode="&#xc5;" horiz-adv-x="609" 
d="M639 0h-283v6h35c25 0 43 20 43 43l-2 12l-53 174l-233 -88c-21 -8 -38 -26 -45 -48c-10 -34 -9 -18 -15 -54c0 -21 17 -39 39 -39h40v-6h-195v6h44c30 0 57 20 67 50l175 564c2 3 2 6 2 9c0 17 -14 32 -32 32h-55v7h175l184 -605c10 -33 41 -57 77 -57h32v-6zM115 142
l262 99l-114 377zM291 731c-26 0 -46 21 -46 46c0 26 20 47 46 47s47 -21 47 -47c0 -25 -21 -46 -47 -46zM291 737c22 0 33 18 33 40s-11 40 -33 40s-33 -18 -33 -40s11 -40 33 -40z" />
    <glyph glyph-name="AE" unicode="&#xc6;" horiz-adv-x="775" 
d="M775 668l-27 -165l-6 1l7 45c1 5 1 11 1 16c0 26 -9 49 -28 68s-41 28 -68 28h-167c-15 0 -27 -5 -38 -15c-11 -11 -16 -24 -16 -39v-237h138c19 0 36 7 50 21c14 13 21 30 21 49v33h6v-213h-6v33c0 19 -7 36 -21 50c-14 13 -31 20 -50 20h-138v-303c0 -15 5 -27 16 -38
s23 -16 38 -16h167c27 0 49 10 68 29s28 41 28 67c0 5 0 11 -1 16l-7 46l6 1l27 -165h-530v6h40c15 0 28 5 39 16c10 11 15 23 15 38v160l-193 -73c-22 -9 -37 -25 -45 -48c-2 -6 -3 -11 -4 -14c-1 -4 -3 -7 -4 -8c-1 -3 -1 -5 -2 -7s-1 -5 -2 -8c-1 -4 -2 -10 -3 -17
c0 -10 4 -19 12 -27c7 -8 16 -12 27 -12h40v-6h-195v6h44c30 0 52 17 67 50l175 564c1 1 1 3 2 5v4c0 9 -3 16 -9 23c-6 6 -14 9 -23 9h-55v7h604zM339 367l-76 251l-148 -476l224 85v140z" />
    <glyph glyph-name="Ccedilla" unicode="&#xc7;" horiz-adv-x="630" 
d="M334 -3c-86 3 -160 36 -221 99c-65 65 -98 144 -98 237s33 173 98 239c65 65 143 98 235 98s171 -33 236 -99v-1l-116 -159l-6 4l28 37c15 22 22 45 22 69c0 39 -17 73 -52 101s-73 42 -112 42c-61 0 -114 -32 -158 -97c-45 -65 -67 -143 -67 -234c0 -61 10 -112 31 -155
s48 -76 82 -101s71 -42 112 -49c12 -2 25 -3 39 -3c39 0 81 11 125 32c43 21 80 55 109 102l9 -5c-30 -48 -70 -86 -119 -114c-49 -29 -104 -43 -163 -43h-7v-93c23 -1 43 -8 59 -19c15 -11 23 -25 23 -42s-8 -31 -25 -42c-17 -12 -37 -18 -60 -18c-20 0 -37 4 -52 13
c-15 8 -26 18 -31 31l15 7c5 -12 13 -22 24 -31s25 -14 44 -14c21 0 38 5 51 16s19 23 19 38s-6 28 -19 39c-13 10 -30 15 -51 15h-4v100z" />
    <glyph glyph-name="Egrave" unicode="&#xc8;" horiz-adv-x="510" 
d="M500 0h-530v6h40c30 0 54 25 54 54v547c0 30 -24 54 -54 54h-40v7h530l-27 -165l-6 1l7 45c1 5 1 11 1 16c0 52 -42 96 -96 96h-167c-30 0 -54 -24 -54 -54v-237h138c39 0 71 31 71 70v33h6v-213h-6v33c0 38 -32 70 -71 70h-138v-303c0 -29 24 -54 54 -54h167
c54 0 96 44 96 96c0 5 0 11 -1 16l-7 46l6 1zM266 731l-99 78l9 10l94 -84z" />
    <glyph glyph-name="Eacute" unicode="&#xc9;" horiz-adv-x="510" 
d="M500 0h-530v6h40c30 0 54 25 54 54v547c0 30 -24 54 -54 54h-40v7h530l-27 -165l-6 1l7 45c1 5 1 11 1 16c0 52 -42 96 -96 96h-167c-30 0 -54 -24 -54 -54v-237h138c39 0 71 31 71 70v33h6v-213h-6v33c0 38 -32 70 -71 70h-138v-303c0 -29 24 -54 54 -54h167
c54 0 96 44 96 96c0 5 0 11 -1 16l-7 46l6 1zM204 731l-3 4l93 84l10 -10z" />
    <glyph glyph-name="Ecircumflex" unicode="&#xca;" horiz-adv-x="510" 
d="M500 0h-530v6h40c30 0 54 25 54 54v547c0 30 -24 54 -54 54h-40v7h530l-27 -165l-6 1l7 45c1 5 1 11 1 16c0 52 -42 96 -96 96h-167c-30 0 -54 -24 -54 -54v-237h138c39 0 71 31 71 70v33h6v-213h-6v33c0 38 -32 70 -71 70h-138v-303c0 -29 24 -54 54 -54h167
c54 0 96 44 96 96c0 5 0 11 -1 16l-7 46l6 1zM315 731l-80 62l-79 -62l-3 4l82 82l83 -82z" />
    <glyph glyph-name="Edieresis" unicode="&#xcb;" horiz-adv-x="510" 
d="M500 0h-530v6h40c30 0 54 25 54 54v547c0 30 -24 54 -54 54h-40v7h530l-27 -165l-6 1l7 45c1 5 1 11 1 16c0 52 -42 96 -96 96h-167c-30 0 -54 -24 -54 -54v-237h138c39 0 71 31 71 70v33h6v-213h-6v33c0 38 -32 70 -71 70h-138v-303c0 -29 24 -54 54 -54h167
c54 0 96 44 96 96c0 5 0 11 -1 16l-7 46l6 1zM178 731c-28 0 -50 22 -50 49c0 28 22 50 50 50c27 0 50 -22 50 -50c0 -27 -23 -49 -50 -49zM293 731c-28 0 -50 22 -50 49c0 28 22 50 50 50c27 0 50 -22 50 -50c0 -27 -23 -49 -50 -49z" />
    <glyph glyph-name="Igrave" unicode="&#xcc;" 
d="M253 0h-283v6h41c30 0 54 25 54 54v547c0 30 -24 54 -54 54h-41v7h283v-7h-40c-30 0 -54 -24 -54 -54v-547c0 -29 24 -54 54 -54h40v-6zM143 731l-99 78l9 10l94 -84z" />
    <glyph glyph-name="Iacute" unicode="&#xcd;" 
d="M253 0h-283v6h41c30 0 54 25 54 54v547c0 30 -24 54 -54 54h-41v7h283v-7h-40c-30 0 -54 -24 -54 -54v-547c0 -29 24 -54 54 -54h40v-6zM81 731l-3 4l93 84l10 -10z" />
    <glyph glyph-name="Icircumflex" unicode="&#xce;" 
d="M253 0h-283v6h41c30 0 54 25 54 54v547c0 30 -24 54 -54 54h-41v7h283v-7h-40c-30 0 -54 -24 -54 -54v-547c0 -29 24 -54 54 -54h40v-6zM192 731l-80 62l-79 -62l-3 4l82 82l83 -82z" />
    <glyph glyph-name="Idieresis" unicode="&#xcf;" 
d="M253 0h-283v6h41c30 0 54 25 54 54v547c0 30 -24 54 -54 54h-41v7h283v-7h-40c-30 0 -54 -24 -54 -54v-547c0 -29 24 -54 54 -54h40v-6zM55 731c-28 0 -50 22 -50 49c0 28 22 50 50 50c27 0 50 -22 50 -50c0 -27 -23 -49 -50 -49zM170 731c-28 0 -50 22 -50 49
c0 28 22 50 50 50c27 0 50 -22 50 -50c0 -27 -23 -49 -50 -49z" />
    <glyph glyph-name="Eth" unicode="&#xd0;" horiz-adv-x="627" 
d="M159 330v-270c0 -15 5 -27 15 -37c10 -11 23 -16 38 -17h56c54 0 99 15 134 44s61 69 78 118s25 104 25 165s-10 117 -31 166s-49 89 -85 118c-37 29 -79 44 -126 44h-51c-15 0 -27 -5 -37 -15c-11 -11 -16 -24 -16 -39v-270h94v-7h-94zM65 337v270c0 15 -5 28 -16 39
c-11 10 -23 15 -38 15h-41v7h321c73 0 133 -15 181 -45c47 -30 83 -70 106 -121s34 -107 34 -169c0 -61 -12 -117 -36 -168s-60 -91 -109 -120c-49 -30 -111 -45 -186 -45h-311v6h41c15 0 27 5 38 16s16 23 16 38v270h-228v7h228z" />
    <glyph glyph-name="Ntilde" unicode="&#xd1;" horiz-adv-x="596" 
d="M626 0h-177l-378 612v-552c0 -29 24 -54 54 -54h40v-6h-195v6h41c29 0 53 25 53 54v547c0 30 -24 54 -53 54h-41v7h177l378 -612v551c0 30 -24 54 -54 54h-40v7h195v-7h-41c-29 0 -53 -24 -53 -54v-547c0 -29 22 -54 53 -54h41v-6zM334 730c-33 6 -31 15 -58 28l-16 4
c-31 -8 -24 -6 -35 -19c7 17 3 11 17 23c12 6 16 6 30 6c20 -5 14 -4 30 -14c17 -12 9 -7 25 -15c4 -1 8 -2 12 -2c19 0 31 18 31 18s-8 -22 -29 -28z" />
    <glyph glyph-name="Ograve" unicode="&#xd2;" horiz-adv-x="696" 
d="M348 -3c-184 0 -333 150 -333 336s149 337 333 337s333 -151 333 -337s-149 -336 -333 -336zM348 3c123 0 226 148 226 330c0 183 -103 331 -226 331s-225 -148 -225 -331c0 -182 102 -330 225 -330zM379 722l-99 78l9 10l94 -84z" />
    <glyph glyph-name="Oacute" unicode="&#xd3;" horiz-adv-x="696" 
d="M348 -3c-184 0 -333 150 -333 336s149 337 333 337s333 -151 333 -337s-149 -336 -333 -336zM348 3c123 0 226 148 226 330c0 183 -103 331 -226 331s-225 -148 -225 -331c0 -182 102 -330 225 -330zM317 722l-3 4l93 84l10 -10z" />
    <glyph glyph-name="Ocircumflex" unicode="&#xd4;" horiz-adv-x="696" 
d="M348 -3c-184 0 -333 150 -333 336s149 337 333 337s333 -151 333 -337s-149 -336 -333 -336zM348 3c123 0 226 148 226 330c0 183 -103 331 -226 331s-225 -148 -225 -331c0 -182 102 -330 225 -330zM428 722l-80 62l-79 -62l-3 4l82 82l83 -82z" />
    <glyph glyph-name="Otilde" unicode="&#xd5;" horiz-adv-x="696" 
d="M348 -3c-184 0 -333 150 -333 336s149 337 333 337s333 -151 333 -337s-149 -336 -333 -336zM348 3c123 0 226 148 226 330c0 183 -103 331 -226 331s-225 -148 -225 -331c0 -182 102 -330 225 -330zM384 721c-33 6 -31 15 -58 28l-16 4c-31 -8 -24 -6 -35 -19
c7 17 3 11 17 23c12 6 16 6 30 6c20 -5 14 -4 30 -14c17 -12 9 -7 25 -15c4 -1 8 -2 12 -2c19 0 31 18 31 18s-8 -22 -29 -28z" />
    <glyph glyph-name="Odieresis" unicode="&#xd6;" horiz-adv-x="696" 
d="M348 -3c-184 0 -333 150 -333 336s149 337 333 337s333 -151 333 -337s-149 -336 -333 -336zM348 3c123 0 226 148 226 330c0 183 -103 331 -226 331s-225 -148 -225 -331c0 -182 102 -330 225 -330zM291 722c-28 0 -50 22 -50 49c0 28 22 50 50 50c27 0 50 -22 50 -50
c0 -27 -23 -49 -50 -49zM406 722c-28 0 -50 22 -50 49c0 28 22 50 50 50c27 0 50 -22 50 -50c0 -27 -23 -49 -50 -49z" />
    <glyph glyph-name="multiply" unicode="&#xd7;" horiz-adv-x="255" 
d="M210 246l-83 83l-83 -83l-4 5l82 83l-82 83l4 4l83 -83l83 83l5 -4l-83 -83l83 -83z" />
    <glyph glyph-name="Oslash" unicode="&#xd8;" horiz-adv-x="746" 
d="M376 -92h-6v86c-183 1 -330 152 -330 336c0 185 147 335 330 337v86h6v-86c183 -2 330 -152 330 -337c0 -184 -147 -335 -330 -336v-86zM370 0v660c-122 -2 -222 -149 -222 -330c0 -180 100 -327 222 -330zM376 0c122 3 223 150 223 330c0 181 -101 328 -223 330v-660z
" />
    <glyph glyph-name="Ugrave" unicode="&#xd9;" horiz-adv-x="584" 
d="M292 0c-126 0 -228 102 -228 227v380c0 30 -24 54 -53 54h-41v7h283v-7h-41c-29 0 -53 -24 -53 -54v-383c0 -98 64 -197 177 -197c98 0 177 99 177 197v383c0 30 -24 54 -54 54h-40v7h195v-7h-41c-29 0 -53 -24 -53 -54v-380c0 -125 -102 -227 -228 -227zM372 731l-99 78
l9 10l94 -84z" />
    <glyph glyph-name="Uacute" unicode="&#xda;" horiz-adv-x="584" 
d="M292 0c-126 0 -228 102 -228 227v380c0 30 -24 54 -53 54h-41v7h283v-7h-41c-29 0 -53 -24 -53 -54v-383c0 -98 64 -197 177 -197c98 0 177 99 177 197v383c0 30 -24 54 -54 54h-40v7h195v-7h-41c-29 0 -53 -24 -53 -54v-380c0 -125 -102 -227 -228 -227zM310 731l-3 4
l93 84l10 -10z" />
    <glyph glyph-name="Ucircumflex" unicode="&#xdb;" horiz-adv-x="584" 
d="M292 0c-126 0 -228 102 -228 227v380c0 30 -24 54 -53 54h-41v7h283v-7h-41c-29 0 -53 -24 -53 -54v-383c0 -98 64 -197 177 -197c98 0 177 99 177 197v383c0 30 -24 54 -54 54h-40v7h195v-7h-41c-29 0 -53 -24 -53 -54v-380c0 -125 -102 -227 -228 -227zM421 731l-80 62
l-79 -62l-3 4l82 82l83 -82z" />
    <glyph glyph-name="Udieresis" unicode="&#xdc;" horiz-adv-x="584" 
d="M292 0c-126 0 -228 102 -228 227v380c0 30 -24 54 -53 54h-41v7h283v-7h-41c-29 0 -53 -24 -53 -54v-383c0 -98 64 -197 177 -197c98 0 177 99 177 197v383c0 30 -24 54 -54 54h-40v7h195v-7h-41c-29 0 -53 -24 -53 -54v-380c0 -125 -102 -227 -228 -227zM284 731
c-28 0 -50 22 -50 49c0 28 22 50 50 50c27 0 50 -22 50 -50c0 -27 -23 -49 -50 -49zM399 731c-28 0 -50 22 -50 49c0 28 22 50 50 50c27 0 50 -22 50 -50c0 -27 -23 -49 -50 -49z" />
    <glyph glyph-name="Yacute" unicode="&#xdd;" horiz-adv-x="583" 
d="M433 0h-283v6h40c30 0 54 25 54 54v208c0 30 -7 60 -21 87l-128 247c-18 36 -55 59 -96 59h-29v7h282v-7h-30c-18 0 -31 -14 -31 -30c0 -5 1 -10 4 -15l138 -276l150 262c4 6 5 13 5 19c0 21 -16 40 -39 40h-31v7h195v-7c-56 0 -93 -9 -122 -58l-128 -224
c-16 -28 -25 -61 -25 -94v-225c0 -29 24 -54 54 -54h41v-6zM306 731l-3 4l93 84l10 -10z" />
    <glyph glyph-name="Thorn" unicode="&#xde;" horiz-adv-x="510" 
d="M159 668h141c67 0 117 -15 149 -44c31 -29 46 -64 46 -105v-3c0 -66 -36 -115 -108 -146l-228 -86l-1 -224c0 -15 5 -27 16 -38s23 -16 38 -16h41v-6h-283v6h40c15 0 28 5 39 16c10 11 15 23 15 38l1 667c0 15 -5 28 -16 39c-11 10 -23 15 -38 15h-41v7h283v-7h-40
c-15 0 -28 -5 -38 -15c-11 -11 -16 -24 -16 -39v-59zM159 618v-327l136 51c32 13 58 33 77 61s29 59 29 93c0 46 -15 85 -44 117c-30 32 -68 48 -113 48h-32c-15 0 -27 -5 -38 -15c-8 -8 -13 -17 -15 -28z" />
    <glyph glyph-name="germandbls" unicode="&#xdf;" horiz-adv-x="671" 
d="M398 0h-142v7h103c101 0 178 83 178 178c0 99 -80 179 -178 179c-35 0 -69 -5 -103 -14v9l130 49c50 20 84 67 84 121c0 71 -56 133 -133 133c-39 0 -109 -18 -109 -119v-543h-188v7h40c30 0 54 24 54 54v425c0 101 80 182 198 182h43c136 0 186 -48 190 -118
c0 -49 -33 -94 -104 -121l-156 -59h106c153 0 220 -78 220 -190c0 -111 -104 -180 -233 -180z" />
    <glyph glyph-name="agrave" unicode="&#xe0;" horiz-adv-x="482" 
d="M149 -4c-47 0 -164 14 -164 135c0 175 291 149 291 254c0 50 -35 80 -73 80c-55 0 -103 -38 -103 -87c0 -34 16 -47 48 -71l-4 -5l-114 83c1 2 55 87 172 87c119 0 216 -96 216 -215v-197c0 -29 24 -53 54 -53h40v-7h-188v93c-46 -71 -121 -97 -175 -97zM182 19
c73 0 142 56 142 122v203c0 44 -23 84 -65 107c12 -12 25 -30 25 -62c0 -28 -8 -48 -62 -76c-12 -6 -74 -27 -112 -69c-25 -26 -36 -62 -36 -98c0 -47 18 -100 65 -119c13 -5 28 -8 43 -8zM254 527l-99 78l9 10l94 -84z" />
    <glyph glyph-name="aacute" unicode="&#xe1;" horiz-adv-x="482" 
d="M149 -4c-47 0 -164 14 -164 135c0 175 291 149 291 254c0 50 -35 80 -73 80c-55 0 -103 -38 -103 -87c0 -34 16 -47 48 -71l-4 -5l-114 83c1 2 55 87 172 87c119 0 216 -96 216 -215v-197c0 -29 24 -53 54 -53h40v-7h-188v93c-46 -71 -121 -97 -175 -97zM182 19
c73 0 142 56 142 122v203c0 44 -23 84 -65 107c12 -12 25 -30 25 -62c0 -28 -8 -48 -62 -76c-12 -6 -74 -27 -112 -69c-25 -26 -36 -62 -36 -98c0 -47 18 -100 65 -119c13 -5 28 -8 43 -8zM192 527l-3 4l93 84l10 -10z" />
    <glyph glyph-name="acircumflex" unicode="&#xe2;" horiz-adv-x="482" 
d="M149 -4c-47 0 -164 14 -164 135c0 175 291 149 291 254c0 50 -35 80 -73 80c-55 0 -103 -38 -103 -87c0 -34 16 -47 48 -71l-4 -5l-114 83c1 2 55 87 172 87c119 0 216 -96 216 -215v-197c0 -29 24 -53 54 -53h40v-7h-188v93c-46 -71 -121 -97 -175 -97zM182 19
c73 0 142 56 142 122v203c0 44 -23 84 -65 107c12 -12 25 -30 25 -62c0 -28 -8 -48 -62 -76c-12 -6 -74 -27 -112 -69c-25 -26 -36 -62 -36 -98c0 -47 18 -100 65 -119c13 -5 28 -8 43 -8zM303 527l-80 62l-79 -62l-3 4l82 82l83 -82z" />
    <glyph glyph-name="atilde" unicode="&#xe3;" horiz-adv-x="482" 
d="M149 -4c-47 0 -164 14 -164 135c0 175 291 149 291 254c0 50 -35 80 -73 80c-55 0 -103 -38 -103 -87c0 -34 16 -47 48 -71l-4 -5l-114 83c1 2 55 87 172 87c119 0 216 -96 216 -215v-197c0 -29 24 -53 54 -53h40v-7h-188v93c-46 -71 -121 -97 -175 -97zM182 19
c73 0 142 56 142 122v203c0 44 -23 84 -65 107c12 -12 25 -30 25 -62c0 -28 -8 -48 -62 -76c-12 -6 -74 -27 -112 -69c-25 -26 -36 -62 -36 -98c0 -47 18 -100 65 -119c13 -5 28 -8 43 -8zM259 526c-33 6 -31 15 -58 28l-16 4c-31 -8 -24 -6 -35 -19c7 17 3 11 17 23
c12 6 16 6 30 6c20 -5 14 -4 30 -14c17 -12 9 -7 25 -15c4 -1 8 -2 12 -2c19 0 31 18 31 18s-8 -22 -29 -28z" />
    <glyph glyph-name="adieresis" unicode="&#xe4;" horiz-adv-x="482" 
d="M149 -4c-47 0 -164 14 -164 135c0 175 291 149 291 254c0 50 -35 80 -73 80c-55 0 -103 -38 -103 -87c0 -34 16 -47 48 -71l-4 -5l-114 83c1 2 55 87 172 87c119 0 216 -96 216 -215v-197c0 -29 24 -53 54 -53h40v-7h-188v93c-46 -71 -121 -97 -175 -97zM182 19
c73 0 142 56 142 122v203c0 44 -23 84 -65 107c12 -12 25 -30 25 -62c0 -28 -8 -48 -62 -76c-12 -6 -74 -27 -112 -69c-25 -26 -36 -62 -36 -98c0 -47 18 -100 65 -119c13 -5 28 -8 43 -8zM166 527c-28 0 -50 22 -50 49c0 28 22 50 50 50c27 0 50 -22 50 -50
c0 -27 -23 -49 -50 -49zM281 527c-28 0 -50 22 -50 49c0 28 22 50 50 50c27 0 50 -22 50 -50c0 -27 -23 -49 -50 -49z" />
    <glyph glyph-name="aring" unicode="&#xe5;" horiz-adv-x="482" 
d="M149 -4c-47 0 -164 14 -164 135c0 175 291 149 291 254c0 50 -35 80 -73 80c-55 0 -103 -38 -103 -87c0 -34 16 -47 48 -71l-4 -5l-114 83c1 2 55 87 172 87c119 0 216 -96 216 -215v-197c0 -29 24 -53 54 -53h40v-7h-188v93c-46 -71 -121 -97 -175 -97zM182 19
c73 0 142 56 142 122v203c0 44 -23 84 -65 107c12 -12 25 -30 25 -62c0 -28 -8 -48 -62 -76c-12 -6 -74 -27 -112 -69c-25 -26 -36 -62 -36 -98c0 -47 18 -100 65 -119c13 -5 28 -8 43 -8zM223 527c-26 0 -46 21 -46 46c0 26 20 47 46 47s47 -21 47 -47
c0 -25 -21 -46 -47 -46zM223 533c22 0 33 18 33 40s-11 40 -33 40s-33 -18 -33 -40s11 -40 33 -40z" />
    <glyph glyph-name="ae" unicode="&#xe6;" horiz-adv-x="776" 
d="M182 19c37 0 70 12 99 37c29 24 43 52 43 85v203c0 44 -22 80 -65 107c6 -5 12 -13 17 -23s8 -23 8 -39v-3c0 -12 -4 -24 -11 -36c-7 -11 -24 -24 -51 -37c-2 -1 -5 -2 -9 -4c-12 -5 -28 -12 -48 -23s-38 -25 -55 -42c-24 -29 -36 -62 -36 -98c0 -23 5 -46 15 -69
s27 -40 50 -50c14 -5 28 -8 43 -8zM462 197l189 92c27 17 41 38 41 65c0 10 -2 20 -6 29c-27 55 -59 82 -98 82c-35 0 -65 -22 -90 -67s-38 -100 -38 -164c0 -13 1 -25 2 -37zM418 77v-17c0 -15 5 -27 16 -37c11 -11 23 -16 38 -16h40v-7h-188v93c-24 -35 -52 -60 -85 -75
s-63 -22 -90 -22c-12 0 -27 2 -45 5c-19 3 -37 9 -55 18s-33 22 -45 40c-13 18 -19 42 -19 72c0 33 9 59 27 80c17 20 39 37 66 50c26 13 53 24 80 34c32 11 60 23 83 36s35 31 35 54c0 25 -7 44 -22 59c-15 14 -32 21 -51 21c-27 0 -51 -8 -72 -25s-31 -38 -31 -62
c0 -17 4 -30 12 -39c8 -10 20 -21 36 -32l-4 -5l-114 83c0 1 4 5 11 14s17 19 32 30c14 11 32 21 53 30s47 13 76 13c59 0 110 -21 153 -63c16 -16 29 -33 39 -52c9 16 21 31 34 46c44 46 97 69 160 69c43 0 82 -11 117 -34s63 -54 82 -91l-303 -148c-12 -7 -18 -16 -18 -29
l1 -7c10 -45 29 -80 57 -105c27 -25 59 -38 95 -38c29 0 59 9 90 27s56 47 75 87l7 -4c-19 -40 -47 -72 -82 -97c-36 -25 -76 -37 -121 -37c-63 0 -116 23 -160 70c-3 4 -7 7 -10 11z" />
    <glyph glyph-name="ccedilla" unicode="&#xe7;" horiz-adv-x="398" 
d="M206 -4c-60 1 -112 24 -155 70c-44 47 -66 103 -66 168c0 66 22 122 66 169c44 46 97 69 159 69c43 0 83 -11 118 -34s62 -54 81 -91l-163 -79l-3 6l31 15c27 17 41 38 41 64c0 10 -2 20 -7 30c-26 55 -59 82 -98 82c-35 0 -65 -22 -90 -67s-38 -100 -38 -164
c0 -69 16 -121 47 -158s69 -56 112 -56c29 0 59 9 90 27s56 47 75 87l7 -4c-19 -40 -46 -72 -82 -97c-35 -24 -75 -36 -118 -37v-102c23 -1 43 -8 59 -19c15 -11 23 -25 23 -42s-8 -31 -25 -42c-17 -12 -37 -18 -60 -18c-20 0 -37 4 -52 13c-15 8 -26 18 -31 31l15 7
c5 -12 13 -22 24 -31s25 -14 44 -14c21 0 38 5 51 16s19 23 19 38s-6 28 -19 39c-13 10 -30 15 -51 15h-4v109z" />
    <glyph glyph-name="egrave" unicode="&#xe8;" horiz-adv-x="399" 
d="M211 -4c-125 0 -226 107 -226 238c0 132 101 238 226 238c86 0 161 -51 199 -125l-303 -148c-11 -5 -18 -17 -18 -29l1 -7c19 -90 80 -143 152 -143c58 0 128 33 165 114l7 -4c-37 -79 -114 -134 -203 -134zM85 197l189 92c26 12 41 38 41 65c0 10 -2 20 -6 29
c-24 50 -59 82 -98 82c-71 0 -128 -103 -128 -231c0 -13 0 -25 2 -37zM242 524l-99 78l9 10l94 -84z" />
    <glyph glyph-name="eacute" unicode="&#xe9;" horiz-adv-x="399" 
d="M211 -4c-125 0 -226 107 -226 238c0 132 101 238 226 238c86 0 161 -51 199 -125l-303 -148c-11 -5 -18 -17 -18 -29l1 -7c19 -90 80 -143 152 -143c58 0 128 33 165 114l7 -4c-37 -79 -114 -134 -203 -134zM85 197l189 92c26 12 41 38 41 65c0 10 -2 20 -6 29
c-24 50 -59 82 -98 82c-71 0 -128 -103 -128 -231c0 -13 0 -25 2 -37zM180 524l-3 4l93 84l10 -10z" />
    <glyph glyph-name="ecircumflex" unicode="&#xea;" horiz-adv-x="399" 
d="M211 -4c-125 0 -226 107 -226 238c0 132 101 238 226 238c86 0 161 -51 199 -125l-303 -148c-11 -5 -18 -17 -18 -29l1 -7c19 -90 80 -143 152 -143c58 0 128 33 165 114l7 -4c-37 -79 -114 -134 -203 -134zM85 197l189 92c26 12 41 38 41 65c0 10 -2 20 -6 29
c-24 50 -59 82 -98 82c-71 0 -128 -103 -128 -231c0 -13 0 -25 2 -37zM291 524l-80 62l-79 -62l-3 4l82 82l83 -82z" />
    <glyph glyph-name="edieresis" unicode="&#xeb;" horiz-adv-x="399" 
d="M211 -4c-125 0 -226 107 -226 238c0 132 101 238 226 238c86 0 161 -51 199 -125l-303 -148c-11 -5 -18 -17 -18 -29l1 -7c19 -90 80 -143 152 -143c58 0 128 33 165 114l7 -4c-37 -79 -114 -134 -203 -134zM85 197l189 92c26 12 41 38 41 65c0 10 -2 20 -6 29
c-24 50 -59 82 -98 82c-71 0 -128 -103 -128 -231c0 -13 0 -25 2 -37zM154 524c-28 0 -50 22 -50 49c0 28 22 50 50 50c27 0 50 -22 50 -50c0 -27 -23 -49 -50 -49zM269 524c-28 0 -50 22 -50 49c0 28 22 50 50 50c27 0 50 -22 50 -50c0 -27 -23 -49 -50 -49z" />
    <glyph glyph-name="igrave" unicode="&#xec;" 
d="M253 0h-283v7h41c29 0 53 24 53 53v296c0 29 -24 53 -53 53h-41v7c75 8 122 17 188 53v-409c0 -29 25 -53 54 -53h41v-7zM135 521l-99 78l9 10l94 -84z" />
    <glyph glyph-name="iacute" unicode="&#xed;" 
d="M253 0h-283v7h41c29 0 53 24 53 53v296c0 29 -24 53 -53 53h-41v7c75 8 122 17 188 53v-409c0 -29 25 -53 54 -53h41v-7zM73 521l-3 4l93 84l10 -10z" />
    <glyph glyph-name="icircumflex" unicode="&#xee;" 
d="M253 0h-283v7h41c29 0 53 24 53 53v296c0 29 -24 53 -53 53h-41v7c75 8 122 17 188 53v-409c0 -29 25 -53 54 -53h41v-7zM184 521l-80 62l-79 -62l-3 4l82 82l83 -82z" />
    <glyph glyph-name="idieresis" unicode="&#xef;" 
d="M253 0h-283v7h41c29 0 53 24 53 53v296c0 29 -24 53 -53 53h-41v7c75 8 122 17 188 53v-409c0 -29 25 -53 54 -53h41v-7zM47 521c-28 0 -50 22 -50 49c0 28 22 50 50 50c27 0 50 -22 50 -50c0 -27 -23 -49 -50 -49zM162 521c-28 0 -50 22 -50 49c0 28 22 50 50 50
c27 0 50 -22 50 -50c0 -27 -23 -49 -50 -49z" />
    <glyph glyph-name="eth" unicode="&#xf0;" horiz-adv-x="487" 
d="M194 30c23 1 44 10 65 25c20 15 37 38 50 68c13 29 20 66 20 111c0 46 -7 84 -21 113s-31 52 -52 67s-42 24 -64 25c-31 0 -58 -19 -80 -57c-23 -38 -34 -87 -34 -148s11 -110 34 -147c23 -38 50 -57 82 -57zM423 573v-513c0 -15 5 -27 16 -37c11 -11 23 -16 38 -16h40
v-7h-188v169c-11 -51 -32 -92 -63 -124s-66 -48 -106 -48c-49 0 -90 23 -124 70c-34 46 -51 102 -51 167c0 66 17 122 51 169c34 46 75 69 124 69c40 0 75 -16 106 -48c31 -33 52 -74 63 -125v274h-74v7h74v27c0 15 -5 28 -16 39c-11 10 -23 15 -38 15h-40v7
c37 3 69 9 97 16s58 20 91 37v-141h73v-7h-73z" />
    <glyph glyph-name="ntilde" unicode="&#xf1;" horiz-adv-x="553" 
d="M583 0h-188v249c-4 113 -54 190 -116 190c-60 -4 -120 -68 -121 -201v-178c0 -29 24 -53 54 -53h40v-7h-282v7h40c30 0 54 24 54 53v296c0 29 -24 53 -54 53h-40v7c75 8 123 17 188 53v-159c24 100 72 162 155 162c109 0 176 -107 176 -238v-174c0 -29 24 -53 54 -53h40
v-7zM319 523c-33 6 -31 15 -58 28l-16 4c-31 -8 -24 -6 -35 -19c7 17 3 11 17 23c12 6 16 6 30 6c20 -5 14 -4 30 -14c17 -12 9 -7 25 -15c4 -1 8 -2 12 -2c19 0 31 18 31 18s-8 -22 -29 -28z" />
    <glyph glyph-name="ograve" unicode="&#xf2;" horiz-adv-x="421" 
d="M211 -4c-125 0 -226 107 -226 238c0 132 101 238 226 238c124 0 225 -106 225 -238c0 -131 -101 -238 -225 -238zM211 3c70 0 128 104 128 231c0 128 -58 231 -128 231c-71 0 -129 -103 -129 -231c0 -127 58 -231 129 -231zM242 523l-99 78l9 10l94 -84z" />
    <glyph glyph-name="oacute" unicode="&#xf3;" horiz-adv-x="421" 
d="M211 -4c-125 0 -226 107 -226 238c0 132 101 238 226 238c124 0 225 -106 225 -238c0 -131 -101 -238 -225 -238zM211 3c70 0 128 104 128 231c0 128 -58 231 -128 231c-71 0 -129 -103 -129 -231c0 -127 58 -231 129 -231zM180 523l-3 4l93 84l10 -10z" />
    <glyph glyph-name="ocircumflex" unicode="&#xf4;" horiz-adv-x="421" 
d="M211 -4c-125 0 -226 107 -226 238c0 132 101 238 226 238c124 0 225 -106 225 -238c0 -131 -101 -238 -225 -238zM211 3c70 0 128 104 128 231c0 128 -58 231 -128 231c-71 0 -129 -103 -129 -231c0 -127 58 -231 129 -231zM291 523l-80 62l-79 -62l-3 4l82 82l83 -82z
" />
    <glyph glyph-name="otilde" unicode="&#xf5;" horiz-adv-x="421" 
d="M211 -4c-125 0 -226 107 -226 238c0 132 101 238 226 238c124 0 225 -106 225 -238c0 -131 -101 -238 -225 -238zM211 3c70 0 128 104 128 231c0 128 -58 231 -128 231c-71 0 -129 -103 -129 -231c0 -127 58 -231 129 -231zM247 522c-33 6 -31 15 -58 28l-16 4
c-31 -8 -24 -6 -35 -19c7 17 3 11 17 23c12 6 16 6 30 6c20 -5 14 -4 30 -14c17 -12 9 -7 25 -15c4 -1 8 -2 12 -2c19 0 31 18 31 18s-8 -22 -29 -28z" />
    <glyph glyph-name="odieresis" unicode="&#xf6;" horiz-adv-x="421" 
d="M211 -4c-125 0 -226 107 -226 238c0 132 101 238 226 238c124 0 225 -106 225 -238c0 -131 -101 -238 -225 -238zM211 3c70 0 128 104 128 231c0 128 -58 231 -128 231c-71 0 -129 -103 -129 -231c0 -127 58 -231 129 -231zM154 523c-28 0 -50 22 -50 49
c0 28 22 50 50 50c27 0 50 -22 50 -50c0 -27 -23 -49 -50 -49zM269 523c-28 0 -50 22 -50 49c0 28 22 50 50 50c27 0 50 -22 50 -50c0 -27 -23 -49 -50 -49z" />
    <glyph glyph-name="divide" unicode="&#xf7;" horiz-adv-x="321" 
d="M281 330h-241v7h241v-7zM160 160c-27 0 -50 22 -50 50c0 27 23 50 50 50c28 0 50 -23 50 -50c0 -28 -22 -50 -50 -50zM160 408c-27 0 -50 22 -50 50c0 27 23 50 50 50c28 0 50 -23 50 -50c0 -28 -22 -50 -50 -50z" />
    <glyph glyph-name="oslash" unicode="&#xf8;" horiz-adv-x="421" 
d="M137 44c21 -27 46 -41 74 -41c35 0 66 23 91 68s37 99 37 163s-12 119 -37 164c-5 7 -9 14 -13 20zM132 50l152 374c-21 27 -45 41 -73 41c-36 0 -66 -22 -91 -67s-38 -100 -38 -164s13 -118 38 -163c4 -8 8 -15 12 -21zM303 452c24 -11 47 -28 67 -49
c44 -47 66 -103 66 -169c0 -65 -22 -121 -66 -168s-97 -70 -159 -70c-31 0 -60 6 -87 17l-46 -113h-7l47 116c-24 12 -47 28 -67 50c-44 47 -66 103 -66 168c0 66 22 122 66 169c44 46 97 69 160 69c31 0 59 -6 86 -17l46 113h7z" />
    <glyph glyph-name="ugrave" unicode="&#xf9;" horiz-adv-x="553" 
d="M240 -3c-109 0 -176 107 -176 238v121c0 29 -24 53 -54 53h-40v7c76 8 123 17 188 53v-249c4 -113 54 -190 116 -190c60 4 119 68 121 201v125c0 29 -24 53 -54 53h-40v7c76 8 123 17 188 53v-409c0 -29 24 -53 54 -53h40v-7h-188v159c-24 -100 -73 -162 -155 -162z
M308 515l-99 78l9 10l94 -84z" />
    <glyph glyph-name="uacute" unicode="&#xfa;" horiz-adv-x="553" 
d="M240 -3c-109 0 -176 107 -176 238v121c0 29 -24 53 -54 53h-40v7c76 8 123 17 188 53v-249c4 -113 54 -190 116 -190c60 4 119 68 121 201v125c0 29 -24 53 -54 53h-40v7c76 8 123 17 188 53v-409c0 -29 24 -53 54 -53h40v-7h-188v159c-24 -100 -73 -162 -155 -162z
M246 515l-3 4l93 84l10 -10z" />
    <glyph glyph-name="ucircumflex" unicode="&#xfb;" horiz-adv-x="553" 
d="M240 -3c-109 0 -176 107 -176 238v121c0 29 -24 53 -54 53h-40v7c76 8 123 17 188 53v-249c4 -113 54 -190 116 -190c60 4 119 68 121 201v125c0 29 -24 53 -54 53h-40v7c76 8 123 17 188 53v-409c0 -29 24 -53 54 -53h40v-7h-188v159c-24 -100 -73 -162 -155 -162z
M357 515l-80 62l-79 -62l-3 4l82 82l83 -82z" />
    <glyph glyph-name="udieresis" unicode="&#xfc;" horiz-adv-x="553" 
d="M240 -3c-109 0 -176 107 -176 238v121c0 29 -24 53 -54 53h-40v7c76 8 123 17 188 53v-249c4 -113 54 -190 116 -190c60 4 119 68 121 201v125c0 29 -24 53 -54 53h-40v7c76 8 123 17 188 53v-409c0 -29 24 -53 54 -53h40v-7h-188v159c-24 -100 -73 -162 -155 -162z
M220 515c-28 0 -50 22 -50 49c0 28 22 50 50 50c27 0 50 -22 50 -50c0 -27 -23 -49 -50 -49zM335 515c-28 0 -50 22 -50 49c0 28 22 50 50 50c27 0 50 -22 50 -50c0 -27 -23 -49 -50 -49z" />
    <glyph glyph-name="yacute" unicode="&#xfd;" horiz-adv-x="547" 
d="M62 -252h-54l27 165l6 -1c-3 -20 -3 -11 -4 -31c0 -21 17 -39 38 -39h85c48 0 91 30 109 75c7 20 10 19 10 37c0 25 -20 46 -46 46l-152 400c-15 38 -50 62 -90 62h-21v7h283v-7h-17c-31 0 -54 -24 -54 -53c0 -6 1 -13 4 -20l131 -345l133 351c2 6 4 12 4 18
c0 26 -22 49 -50 49h-22v7h195v-7h-21c-44 0 -83 -27 -99 -68l-192 -506c-32 -84 -113 -140 -203 -140zM289 520l-3 4l93 84l10 -10z" />
    <glyph glyph-name="thorn" unicode="&#xfe;" horiz-adv-x="488" 
d="M253 -252h-283v7h41c29 0 53 24 53 54v657c0 29 -24 53 -53 53h-41v7c75 8 122 17 189 53v-280c20 100 88 173 168 173c97 0 176 -107 176 -238s-79 -237 -176 -237c-80 0 -148 73 -168 172v-360c0 -30 24 -54 53 -54h41v-7zM293 30c65 0 116 83 116 204
c0 124 -52 204 -118 204c-60 -2 -132 -71 -132 -203c0 -128 65 -198 125 -204z" />
    <glyph glyph-name="ydieresis" unicode="&#xff;" horiz-adv-x="547" 
d="M62 -252h-54l27 165l6 -1c-3 -20 -3 -11 -4 -31c0 -21 17 -39 38 -39h85c48 0 91 30 109 75c7 20 10 19 10 37c0 25 -20 46 -46 46l-152 400c-15 38 -50 62 -90 62h-21v7h283v-7h-17c-31 0 -54 -24 -54 -53c0 -6 1 -13 4 -20l131 -345l133 351c2 6 4 12 4 18
c0 26 -22 49 -50 49h-22v7h195v-7h-21c-44 0 -83 -27 -99 -68l-192 -506c-32 -84 -113 -140 -203 -140zM263 520c-28 0 -50 22 -50 49c0 28 22 50 50 50c27 0 50 -22 50 -50c0 -27 -23 -49 -50 -49zM378 520c-28 0 -50 22 -50 49c0 28 22 50 50 50c27 0 50 -22 50 -50
c0 -27 -23 -49 -50 -49z" />
    <glyph glyph-name="idotless" unicode="&#x131;" 
d="M253 0h-283v7h41c29 0 53 24 53 53v296c0 29 -24 53 -53 53h-41v7c75 8 122 17 188 53v-409c0 -29 25 -53 54 -53h41v-7z" />
    <glyph glyph-name="gravecomb" unicode="&#x300;" horiz-adv-x="183" 
d="M139 731l-99 78l9 10l94 -84z" />
    <glyph glyph-name="acutecomb" unicode="&#x301;" horiz-adv-x="183" 
d="M43 731l-3 4l93 84l10 -10z" />
    <glyph glyph-name="circumflexcomb" unicode="&#x302;" horiz-adv-x="245" 
d="M202 731l-80 62l-79 -62l-3 4l82 82l83 -82z" />
    <glyph glyph-name="tildecomb" unicode="&#x303;" horiz-adv-x="225" 
d="M149 730c-33 6 -31 15 -58 28l-16 4c-31 -8 -24 -6 -35 -19c7 17 3 11 17 23c12 6 16 6 30 6c20 -5 14 -4 30 -14c17 -12 9 -7 25 -15c4 -1 8 -2 12 -2c19 0 31 18 31 18s-8 -22 -29 -28z" />
    <glyph glyph-name="macroncomb" unicode="&#x304;" horiz-adv-x="220" 
d="M180 731h-140v14h140v-14z" />
    <glyph glyph-name="dotaccentcomb" unicode="&#x307;" horiz-adv-x="180" 
d="M90 731c-28 0 -50 22 -50 49c0 28 22 50 50 50c27 0 50 -22 50 -50c0 -27 -23 -49 -50 -49z" />
    <glyph glyph-name="dieresiscomb" unicode="&#x308;" horiz-adv-x="295" 
d="M90 731c-28 0 -50 22 -50 49c0 28 22 50 50 50c27 0 50 -22 50 -50c0 -27 -23 -49 -50 -49zM205 731c-28 0 -50 22 -50 49c0 28 22 50 50 50c27 0 50 -22 50 -50c0 -27 -23 -49 -50 -49z" />
    <glyph glyph-name="ringcomb" unicode="&#x30a;" horiz-adv-x="173" 
d="M86 731c-26 0 -46 21 -46 46c0 26 20 47 46 47s47 -21 47 -47c0 -25 -21 -46 -47 -46zM86 737c22 0 33 18 33 40s-11 40 -33 40s-33 -18 -33 -40s11 -40 33 -40z" />
    <glyph glyph-name="caroncomb" unicode="&#x30c;" horiz-adv-x="245" 
d="M122 731l-82 82l3 4l79 -62l80 62l3 -4z" />
    <glyph glyph-name="cedillacomb" unicode="&#x327;" horiz-adv-x="248" 
d="M123 -207c-40 0 -73 19 -83 44l15 7c9 -23 31 -45 68 -45c43 0 70 25 70 54c0 31 -28 54 -70 54h-4v129h7v-122c45 -2 82 -28 82 -61s-38 -60 -85 -60z" />
    <glyph glyph-name="endash" unicode="&#x2013;" horiz-adv-x="321" 
d="M281 330h-241v7h241v-7z" />
    <glyph glyph-name="emdash" unicode="&#x2014;" horiz-adv-x="458" 
d="M418 330h-378v7h378v-7z" />
    <glyph glyph-name="quoteleft" unicode="&#x2018;" horiz-adv-x="180" 
d="M131 492c-88 39 -91 113 -91 125c0 27 21 51 50 51c28 0 50 -23 50 -50c0 -28 -22 -50 -50 -50v-1c0 -7 2 -47 41 -75z" />
    <glyph glyph-name="quoteright" unicode="&#x2019;" horiz-adv-x="180" 
d="M49 492c39 28 41 68 41 75v1c-28 0 -50 22 -50 50c0 27 22 50 50 50c30 0 50 -24 50 -51c0 -12 -3 -86 -91 -125z" />
    <glyph glyph-name="quotesinglbase" unicode="&#x201a;" horiz-adv-x="180" 
d="M49 -76c39 28 41 68 41 75v1c-28 0 -50 22 -50 50c0 27 22 49 50 49c30 0 50 -23 50 -50c0 -12 -3 -86 -91 -125z" />
    <glyph glyph-name="quotedblleft" unicode="&#x201c;" horiz-adv-x="297" 
d="M207 492c-29 0 -50 24 -50 51c0 12 3 86 91 125c-39 -28 -41 -68 -41 -75v-1c28 0 50 -22 50 -50c0 -27 -22 -50 -50 -50zM90 492c-29 0 -50 24 -50 51c0 12 3 86 91 125c-39 -28 -41 -68 -41 -75v-1c28 0 50 -22 50 -50c0 -27 -22 -50 -50 -50z" />
    <glyph glyph-name="quotedblright" unicode="&#x201d;" horiz-adv-x="297" 
d="M49 492c39 28 41 68 41 75v1c-28 0 -50 22 -50 50c0 27 22 50 50 50c30 0 50 -24 50 -51c0 -12 -3 -86 -91 -125zM166 492c39 28 41 68 41 75v1c-28 0 -50 22 -50 50c0 27 22 50 50 50c30 0 50 -24 50 -51c0 -12 -3 -86 -91 -125z" />
    <glyph glyph-name="quotedblbase" unicode="&#x201e;" horiz-adv-x="297" 
d="M166 -76c39 28 41 68 41 75v1c-28 0 -50 22 -50 50c0 27 22 49 50 49c30 0 50 -23 50 -50c0 -12 -3 -86 -91 -125zM49 -76c39 28 41 68 41 75v1c-28 0 -50 22 -50 50c0 27 22 49 50 49c30 0 50 -23 50 -50c0 -12 -3 -86 -91 -125z" />
    <glyph glyph-name="dagger" unicode="&#x2020;" horiz-adv-x="463" 
d="M235 0h-7v458h-188v6h188v204h7v-204h188v-6h-188v-458z" />
    <glyph glyph-name="daggerdbl" unicode="&#x2021;" horiz-adv-x="463" 
d="M235 0h-7v203h-188v7h188v248h-188v6h188v204h7v-204h188v-6h-188v-248h188v-7h-188v-203z" />
    <glyph glyph-name="bullet" unicode="&#x2022;" horiz-adv-x="500" 
d="M178 235c-54 0 -99 44 -99 99s45 99 99 99c55 0 100 -44 100 -99s-45 -99 -100 -99z" />
    <glyph glyph-name="ellipsis" unicode="&#x2026;" horiz-adv-x="1000" 
d="M90 0c-28 0 -50 22 -50 50c0 27 22 49 50 49c27 0 50 -22 50 -49c0 -28 -23 -50 -50 -50zM423 0c-28 0 -50 22 -50 50c0 27 22 49 50 49c27 0 50 -22 50 -49c0 -28 -23 -50 -50 -50zM756 0c-28 0 -50 22 -50 50c0 27 22 49 50 49c27 0 50 -22 50 -49
c0 -28 -23 -50 -50 -50z" />
    <glyph glyph-name="guilsinglleft" unicode="&#x2039;" horiz-adv-x="362" 
d="M322 177l-282 157l282 157v-8l-268 -149l268 -150v-7z" />
    <glyph glyph-name="guilsinglright" unicode="&#x203a;" horiz-adv-x="362" 
d="M40 177v7l269 150l-269 149v8l282 -157z" />
    <glyph glyph-name="fraction" unicode="&#x2044;" horiz-adv-x="359" 
d="M47 0h-7l272 668h7z" />
    <glyph glyph-name="fraction" unicode="&#x2215;" horiz-adv-x="359" 
d="M47 0h-7l272 668h7z" />
    <glyph glyph-name="frenchfrancsign" unicode="&#x20a3;" horiz-adv-x="550" 
d="M455 0h-126c-108 0 -195 87 -195 195v135h-72v7h72v270c0 30 -24 54 -54 54h-40v7h470l-27 -165l-7 1c7 37 6 21 9 60c0 53 -42 97 -97 97h-106c-30 0 -54 -24 -54 -54v-270h142v-7h-142v-218c0 -58 47 -106 106 -106c54 0 96 45 96 97c-3 40 -2 23 -9 61l7 1z" />
    <glyph glyph-name="lirasign" unicode="&#x20a4;" horiz-adv-x="550" 
d="M510 0h-470v6h40c30 0 54 25 54 54v238h-69v6h69v52h-69v7h69v109c0 108 88 196 196 196h125l-27 -165l-6 1l7 45c1 5 1 11 1 16c0 52 -42 96 -96 96c-58 0 -106 -47 -106 -105v-193h146v-7h-146v-52h146v-6h-146v-238c0 -29 24 -54 54 -54h107c54 0 96 45 96 97
c-3 40 -2 23 -9 61l7 1z" />
    <glyph glyph-name="pesetasign" unicode="&#x20a7;" horiz-adv-x="968" 
d="M139 291l123 51c29 13 53 33 70 61s26 59 26 93c0 46 -13 85 -40 117s-61 48 -102 48h-28c-13 0 -25 -5 -34 -15c-10 -11 -15 -24 -15 -39v-316zM428 447c-15 -32 -43 -58 -83 -77l-206 -86v-224c0 -15 5 -27 15 -38c9 -11 21 -16 34 -16h36v-6h-254v6h36
c13 0 25 5 35 16c9 11 14 23 14 38v547c0 15 -5 28 -14 39c-10 10 -22 15 -35 15h-36v7h297c60 0 104 -15 133 -44c22 -23 36 -49 41 -80l81 81v-161h94v-6h-94v-347c0 -33 6 -57 19 -72c13 -16 30 -24 52 -24c11 0 22 3 33 8c7 4 13 8 18 13c-12 9 -21 18 -28 29
c-13 19 -20 36 -23 52c-3 13 -4 22 -4 28v3l-1 2l117 49l4 -6c-31 -11 -46 -35 -46 -71c1 -15 4 -29 9 -42v2c3 10 5 19 6 26c0 3 0 5 1 6v4h8c-2 -19 -6 -35 -11 -48c6 -13 14 -24 24 -33c23 -23 53 -34 91 -34c5 0 13 1 26 3c12 1 25 5 39 12c14 6 26 15 37 28
c10 13 15 30 15 51c0 40 -34 71 -103 92l-114 34c-36 13 -62 30 -78 49c-17 19 -25 40 -25 63c0 17 6 37 18 58s32 40 61 56c28 15 66 23 115 23c42 0 78 -7 109 -22c30 -15 52 -37 67 -66l-143 -59l-3 6c17 7 29 15 38 24s13 22 13 39c0 19 -7 35 -22 50
c-15 14 -34 21 -59 21c-7 0 -16 -1 -25 -2s-18 -4 -25 -7c-37 -20 -55 -45 -55 -74c0 -15 6 -30 19 -44c13 -15 33 -26 61 -35l107 -30c47 -14 78 -33 95 -56c16 -24 24 -49 24 -76c0 -9 -3 -21 -8 -37s-15 -32 -29 -48c-14 -17 -33 -31 -58 -42c-25 -12 -58 -18 -97 -18
c-49 0 -88 7 -115 21c-9 4 -18 8 -25 13c-17 -17 -35 -27 -54 -31c-20 -5 -33 -7 -40 -7h-4c-29 0 -52 5 -69 16c-17 10 -29 23 -37 38c-9 15 -14 30 -16 45s-3 27 -3 36v320z" />
    <glyph glyph-name="euro" unicode="&#x20ac;" horiz-adv-x="756" 
d="M434 -6c-173 0 -315 133 -331 304h-63v6h62c-1 9 -1 18 -1 26c0 9 0 18 1 26h-62v7h63c16 171 158 304 331 304c93 0 176 -38 237 -99v-1l-117 -159l-6 4l28 37c15 21 22 45 22 69c0 80 -87 143 -164 143c-116 0 -213 -131 -224 -298h138v-7h-138c-1 -8 -1 -17 -1 -26
c0 -8 0 -17 1 -26h138v-6h-138c12 -162 110 -252 224 -273c12 -2 25 -3 39 -3c79 0 178 39 235 134l8 -5c-59 -95 -163 -157 -282 -157z" />
    <glyph glyph-name="numerosign" unicode="&#x2116;" horiz-adv-x="1049" 
d="M626 0h-177l-378 612v-552c0 -29 24 -54 54 -54h40v-6h-195v6h41c29 0 53 25 53 54v547c0 30 -24 54 -53 54h-41v7h177l378 -612v551c0 30 -24 54 -54 54h-40v7h195v-7h-41c-29 0 -53 -24 -53 -54v-547c0 -29 22 -54 53 -54h41v-6zM1031 70h-415v6h415v-6zM824 144
c-125 0 -226 107 -226 238c0 132 101 238 226 238c124 0 225 -106 225 -238c0 -131 -101 -238 -225 -238zM824 151c70 0 128 104 128 231c0 128 -58 231 -128 231c-71 0 -129 -103 -129 -231c0 -127 58 -231 129 -231z" />
    <glyph glyph-name="trademark" unicode="&#x2122;" horiz-adv-x="337" 
d="M120 537h-56v1c11 0 19 1 19 10v108c0 6 -5 10 -11 10c-16 0 -26 -3 -26 -19l1 -11l-1 -1l-6 33h104l-5 -33l-2 1c2 7 2 5 2 11c0 16 -10 19 -27 19c-6 0 -11 -4 -11 -10v-108c0 -9 8 -10 19 -10v-1zM297 537h-55v1h8c6 0 10 5 10 10v116l-47 -118l-44 109v-107
c0 -5 5 -10 10 -10h8v-1h-38v1h8c6 0 11 5 11 10v108c-2 7 -4 10 -11 10h-8v2h35l38 -96l38 96h37v-2h-8c-5 0 -10 -4 -10 -10v-108c0 -5 5 -10 10 -10h8v-1z" />
    <glyph glyph-name="minus" unicode="&#x2212;" horiz-adv-x="321" 
d="M281 330h-241v7h241v-7z" />
    <glyph glyph-name="almostequalto" unicode="&#x2248;" horiz-adv-x="225" 
d="M149 289c-33 6 -31 15 -58 28l-16 4c-31 -8 -24 -6 -35 -19c7 17 3 11 17 23c12 6 16 6 30 6c20 -5 14 -4 30 -14c17 -12 9 -7 25 -15c4 -1 8 -2 12 -2c19 0 31 18 31 18s-8 -22 -29 -28zM149 337c-33 6 -31 15 -58 28l-16 4c-31 -8 -24 -6 -35 -19c7 17 3 11 17 23
c12 6 16 6 30 6c20 -5 14 -4 30 -14c17 -12 9 -7 25 -15c4 -1 8 -2 12 -2c19 0 31 18 31 18s-8 -22 -29 -28z" />
    <glyph glyph-name="lessthanorequalto" unicode="&#x2264;" horiz-adv-x="362" 
d="M322 213l-282 157l282 157v-8l-268 -149l268 -150v-7zM322 141h-282v7h282v-7z" />
    <glyph glyph-name="greaterthanorequalto" unicode="&#x2265;" horiz-adv-x="362" 
d="M40 213v7l269 150l-269 149v8l282 -157zM322 141h-281v7h281v-7z" />
    <glyph glyph-name="fi" unicode="&#xfb01;" horiz-adv-x="623" 
d="M583 0h-543v7h40c30 0 54 24 54 54v402h-67v6h67v72c0 61 33 135 166 135c40 0 94 -6 144 -40c44 -30 52 -60 52 -82c0 -30 -25 -55 -55 -55s-54 25 -54 55c0 21 16 40 16 57c0 18 -11 36 -30 46c-22 11 -42 12 -52 12h-6c-63 0 -87 -51 -87 -102v-98h94v-6h-94v-402
c0 -30 24 -54 54 -54h58c30 0 54 24 54 54v295c0 30 -24 54 -54 54h-40v6c76 10 118 16 188 53v-408c0 -30 24 -54 54 -54h41v-7z" />
    <glyph glyph-name="fl" unicode="&#xfb02;" horiz-adv-x="498" 
d="M286 7c15 0 27 5 38 16c10 10 15 22 15 37v547c0 15 -5 28 -15 39c-6 5 -13 10 -21 12l-24 -155l-7 1l7 45c2 10 3 20 3 29c0 23 -6 43 -17 59s-29 24 -54 24c-15 0 -27 -5 -37 -15c-11 -11 -16 -23 -16 -38v-139h94v-7h-94v-402c0 -15 5 -27 16 -37
c11 -11 23 -16 38 -16h74zM-30 0v7h40c15 0 28 5 39 16c10 10 15 22 15 37v402h-67v7h67v71c0 43 13 75 38 96s57 32 96 32h47c37 3 69 9 98 16c28 7 58 20 91 37v-661c0 -15 5 -27 16 -37c10 -11 22 -16 37 -16h41v-7h-558z" />
    <glyph glyph-name="OE" unicode="&#x152;" horiz-adv-x="956" 
d="M510 563c-1 1 -2 3 -3 4c-45 65 -98 97 -159 97s-114 -32 -158 -97c-45 -65 -67 -143 -67 -234s22 -168 67 -233c44 -65 97 -97 158 -97s114 32 159 97c1 1 2 3 3 4v459zM504 35c-24 -13 -50 -23 -76 -29h28c15 0 27 5 38 16c4 4 7 8 10 13zM348 -3
c-92 0 -170 33 -235 99c-65 65 -98 144 -98 237s33 173 98 239c65 65 143 98 235 98c24 0 223 -1 598 -2l-27 -165l-6 1l7 45c1 5 1 11 1 16c0 26 -9 49 -28 68s-41 28 -68 28h-167c-15 0 -28 -5 -38 -15c-11 -11 -16 -24 -16 -39v-58c44 -52 69 -111 75 -179h63
c19 0 36 7 50 21c14 13 21 30 21 49v33h6v-213h-6v33c0 19 -7 36 -21 50c-14 13 -31 20 -50 20h-62c1 -10 1 -20 1 -30c0 -82 -26 -154 -77 -215v-58c0 -15 5 -27 16 -38c10 -11 23 -16 38 -16h167c27 0 49 10 68 29s28 41 28 67c0 5 0 11 -1 16l-7 46l6 1l27 -165
c-375 -2 -574 -3 -598 -3zM428 661c26 -9 52 -19 76 -29c-2 5 -6 9 -10 14c-11 10 -23 15 -38 15h-28z" />
    <glyph glyph-name="oe" unicode="&#x153;" horiz-adv-x="770" 
d="M211 3c35 0 66 23 91 68s37 99 37 163s-12 119 -37 164s-56 67 -91 67c-36 0 -66 -22 -91 -67s-38 -100 -38 -164s13 -118 38 -163s55 -68 91 -68zM456 197l189 92c27 17 41 38 41 65c0 10 -2 20 -6 29c-27 55 -59 82 -98 82c-35 0 -65 -22 -90 -67s-38 -100 -38 -164
c0 -13 1 -25 2 -37zM396 98c-8 -11 -16 -22 -26 -32c-44 -47 -97 -70 -159 -70c-63 0 -116 23 -160 70s-66 103 -66 168c0 66 22 122 66 169c44 46 97 69 160 69c62 0 115 -23 159 -69c10 -11 18 -22 26 -33c8 11 16 22 26 33c44 46 97 69 160 69c43 0 82 -11 117 -34
s63 -54 82 -91l-303 -148c-12 -7 -18 -16 -18 -29l1 -7c10 -45 29 -80 57 -105c27 -25 59 -38 95 -38c29 0 59 9 90 27s56 47 75 87l7 -4c-19 -40 -47 -72 -82 -97c-36 -25 -76 -37 -121 -37c-63 0 -116 23 -160 70c-10 10 -18 21 -26 32z" />
    <glyph glyph-name="Scaron" unicode="&#x160;" horiz-adv-x="501" 
d="M260 -4l-25 1c-140 7 -218 90 -220 92l106 143l6 -4c-26 -35 -41 -53 -41 -94c0 -77 70 -129 162 -131c116 0 168 75 168 141c0 49 -49 93 -109 119l-178 77c-78 34 -114 94 -114 154c0 86 62 176 220 176c106 0 152 -27 220 -72l-104 -141l-5 4l30 41c10 14 14 30 14 47
c0 21 -7 42 -19 57c-36 44 -75 58 -136 58c-86 0 -147 -64 -147 -125c0 -44 26 -86 81 -110l200 -86c79 -35 117 -98 117 -161c0 -106 -73 -186 -226 -186zM251 731l-82 82l3 4l79 -62l80 62l3 -4z" />
    <glyph glyph-name="scaron" unicode="&#x161;" horiz-adv-x="374" 
d="M197 -4c-212 0 -202 152 -203 154l117 49l4 -6c-35 -13 -47 -35 -47 -71c4 -68 52 -119 129 -119c18 0 116 7 116 94c-1 39 -32 71 -102 92l-114 34c-73 26 -103 66 -103 112c0 52 47 137 194 137c84 0 146 -29 176 -88l-143 -59l-3 6c33 14 51 30 51 63
c0 38 -33 71 -81 71c-15 0 -37 -3 -50 -9c-35 -16 -56 -45 -56 -74c0 -31 25 -63 81 -79l107 -30c95 -27 119 -79 119 -132c0 -35 -35 -145 -192 -145zM192 524l-82 82l3 4l79 -62l80 62l3 -4z" />
    <glyph glyph-name="Ydieresis" unicode="&#x178;" horiz-adv-x="583" 
d="M433 0h-283v6h40c30 0 54 25 54 54v208c0 30 -7 60 -21 87l-128 247c-18 36 -55 59 -96 59h-29v7h282v-7h-30c-18 0 -31 -14 -31 -30c0 -5 1 -10 4 -15l138 -276l150 262c4 6 5 13 5 19c0 21 -16 40 -39 40h-31v7h195v-7c-56 0 -93 -9 -122 -58l-128 -224
c-16 -28 -25 -61 -25 -94v-225c0 -29 24 -54 54 -54h41v-6zM280 731c-28 0 -50 22 -50 49c0 28 22 50 50 50c27 0 50 -22 50 -50c0 -27 -23 -49 -50 -49zM395 731c-28 0 -50 22 -50 49c0 28 22 50 50 50c27 0 50 -22 50 -50c0 -27 -23 -49 -50 -49z" />
    <glyph glyph-name="zcaron" unicode="&#x17e;" horiz-adv-x="492" 
d="M456 0h-426l313 462h-186c-54 0 -96 -44 -96 -96c0 -5 0 -11 1 -16l7 -45l-6 -1l-27 165h426l-313 -462h186c54 0 96 44 96 96c0 5 0 11 -1 16l-7 45l6 1zM246 521l-82 82l3 4l79 -62l80 62l3 -4z" />
    <glyph glyph-name="perthousand" unicode="&#x2030;" horiz-adv-x="882" 
d="M168 0h-7l272 668h7zM167 363c-70 0 -127 68 -127 153c0 84 57 153 127 153c69 0 126 -69 126 -153c0 -85 -57 -153 -126 -153zM167 366c44 0 81 67 81 150s-37 150 -81 150c-45 0 -82 -67 -82 -150s37 -150 82 -150zM440 -2c-70 0 -126 69 -126 153c0 85 56 153 126 153
s126 -68 126 -153c0 -84 -56 -153 -126 -153zM440 1c45 0 81 67 81 150s-36 150 -81 150s-81 -67 -81 -150s36 -150 81 -150zM716 -2c-70 0 -126 69 -126 153c0 85 56 153 126 153s126 -68 126 -153c0 -84 -56 -153 -126 -153zM716 1c45 0 81 67 81 150s-36 150 -81 150
s-81 -67 -81 -150s36 -150 81 -150z" />
    <glyph glyph-name="B.salt" unicode="&#xe000;" horiz-adv-x="576" 
d="M328 0h-358v7h40c30 0 54 24 54 54v547c0 29 -24 53 -54 53h-40v7h364c111 0 157 -49 161 -118c0 -50 -33 -95 -103 -121l-135 -51c-6 -3 -25 -10 -35 -19c0 0 21 11 64 11h55c153 0 220 -79 220 -190s-104 -180 -233 -180zM158 304c10 20 26 36 41 49c27 22 69 36 69 36
l48 19c51 18 85 68 85 123c-5 78 -59 130 -134 130h-55c-30 0 -54 -24 -54 -53v-304zM289 7c101 0 178 82 178 178c0 98 -80 178 -178 178c-10 0 -19 0 -29 -1c-99 -9 -102 -88 -102 -99c1 -90 58 -105 104 -105c22 0 39 4 39 4l-13 -47h-3c-43 0 -102 25 -127 81v-135
c0 -30 24 -54 54 -54h77z" />
    <glyph glyph-name="S.salt" unicode="&#xe001;" horiz-adv-x="501" 
d="M257 -4l-22 1c-140 8 -218 91 -220 92l106 144l6 -4c-26 -35 -41 -53 -41 -94c0 -79 71 -129 164 -131c115 0 167 76 167 141c0 49 -50 93 -110 119l-75 33l-34 -46c-13 -18 -18 -35 -18 -50c0 -46 42 -77 42 -77l-53 -17c-11 16 -15 34 -15 51c0 52 38 100 38 100l32 42
l-95 41c-78 34 -114 94 -114 154c0 86 62 176 220 176c106 0 152 -27 220 -72l-164 -222l78 -33c79 -35 117 -98 117 -161c0 -107 -74 -187 -229 -187zM284 380l92 123c10 14 14 30 14 47c0 21 -7 42 -19 57c-36 44 -75 58 -136 58c-86 0 -147 -64 -147 -125
c0 -44 26 -86 81 -110z" />
    <glyph glyph-name="K.salt" unicode="&#xe002;" horiz-adv-x="571" 
d="M672 -115h-38c-92 0 -175 58 -206 145l-82 230c-21 58 -75 97 -136 97c-31 0 -52 -29 -52 -58v-238c0 -30 24 -54 54 -54h40v-7h-282v7h40c30 0 54 24 54 54v547c0 29 -24 53 -54 53h-40v7h282v-7h-40c-30 0 -54 -24 -54 -53v-275l235 271c6 7 8 15 8 22
c0 28 -19 35 -50 35v7h195v-7c-61 0 -106 -12 -147 -60l-206 -238h42c146 0 191 -47 216 -119l95 -264c19 -54 69 -89 126 -89v-6z" />
    <glyph glyph-name="R.salt" unicode="&#xe003;" horiz-adv-x="541" 
d="M640 -115h-54c-83 0 -157 52 -185 130l-83 241c-10 30 -39 50 -71 50c-39 0 -52 -8 -89 -22v-223c0 -30 24 -54 54 -54h41v-7h-283v7h40c30 0 54 24 54 54v547c0 29 -24 53 -54 53h-40v7h330c134 0 195 -68 195 -152c0 -63 -36 -117 -108 -146l-154 -58h76
c53 0 101 -33 119 -84l89 -258c20 -56 66 -79 123 -79v-6zM158 291l136 52c65 24 107 85 107 154c0 91 -66 164 -157 164h-32c-30 0 -54 -24 -54 -53v-317z" />
    <glyph glyph-name="G.salt" unicode="&#xe004;" horiz-adv-x="650" 
d="M630 -41h-7c-5 51 -22 98 -63 98c-12 0 -27 -4 -44 -14c-50 -29 -107 -46 -168 -46c-184 0 -333 150 -333 336c0 187 149 337 333 337c92 0 176 -38 236 -99l-147 -201h193v-411zM408 23c20 0 40 2 61 9c40 13 67 50 67 92v185c0 30 -24 54 -54 54h-211v7h55
c92 0 186 67 186 151c0 81 -92 143 -164 143c-123 0 -226 -148 -226 -331c0 -195 127 -310 286 -310z" />
    <glyph glyph-name="a.salt" unicode="&#xe005;" horiz-adv-x="494" 
d="M407 -3c-82 0 -83 96 -83 96c-22 -67 -94 -96 -175 -96c-53 0 -160 23 -164 143c0 85 91 139 172 139c7 0 14 0 21 -1l-148 108c1 1 55 86 172 86c119 0 216 -96 216 -215v-170c0 -33 13 -56 37 -56l10 1c31 7 51 58 51 58l8 -2s-31 -91 -117 -91zM324 129v215
c0 43 -25 89 -65 107c-1 2 -26 15 -56 15c-51 0 -96 -36 -96 -85c0 -25 11 -52 35 -69c0 0 28 -19 32 -21c46 -31 141 -97 150 -162zM196 16c37 0 75 14 98 42c0 0 21 22 21 56c0 16 -4 33 -16 53c-20 32 -61 67 -92 90c-8 6 -21 10 -36 10c-42 0 -98 -28 -98 -114l1 -20
c3 -38 35 -93 72 -108c16 -6 33 -9 50 -9z" />
    <glyph glyph-name="a.salt1" unicode="&#xe006;" horiz-adv-x="482" 
d="M404 -3c-77 0 -80 76 -80 93v3c-46 -70 -121 -96 -175 -96c-46 0 -164 13 -164 134c0 98 93 133 170 163c67 25 121 45 121 91c0 42 -27 80 -73 81c-58 0 -102 -41 -102 -88c0 -34 17 -46 47 -71l-3 -5l-115 84c1 1 55 86 173 86c119 0 215 -96 215 -215v-187
c0 -33 14 -44 24 -47l8 -1c4 0 8 1 12 3c33 14 44 58 44 58l6 -1s-16 -85 -108 -85zM184 20c73 0 140 56 140 121v203c0 44 -27 88 -64 107c11 -11 24 -30 24 -62c0 -28 -8 -47 -62 -76c-11 -6 -73 -27 -112 -68c-25 -27 -36 -63 -36 -99c0 -48 20 -100 66 -118
c13 -5 28 -8 44 -8z" />
    <glyph glyph-name="i.salt" unicode="&#xe007;" horiz-adv-x="235" 
d="M148 -3c-83 0 -83 103 -83 103v254c0 30 -24 54 -54 54h-41v7c76 8 122 17 189 53v-381c0 -33 13 -56 37 -56l10 1c31 7 51 58 51 58l8 -3s-31 -90 -117 -90zM118 499c-31 0 -55 25 -55 55s24 55 55 55c30 0 54 -25 54 -55s-24 -55 -54 -55z" />
    <glyph glyph-name="u.salt" unicode="&#xe008;" horiz-adv-x="566" 
d="M479 -3c-83 0 -83 103 -83 103v59c-24 -100 -73 -162 -156 -162c-108 0 -175 107 -175 238v121c0 30 -24 54 -54 54h-41v6c75 10 117 16 189 53v-249c4 -113 54 -190 116 -190c60 4 119 68 120 201c1 0 1 125 1 125c0 30 -25 54 -54 54h-41v6c77 11 117 16 189 53v-382
c0 -33 13 -56 37 -56l10 1c31 7 51 58 51 58l8 -3s-31 -90 -117 -90z" />
    <glyph glyph-name="k.salt" unicode="&#xe009;" horiz-adv-x="545" 
d="M694 -169h-42c-110 0 -211 61 -263 158l-159 299l-39 -39c-21 -21 -32 -50 -32 -80v-108c0 -30 24 -54 53 -54h41v-7h-283v7h41c29 0 53 24 53 54v546c0 30 -24 54 -53 54h-41v7c76 8 122 17 189 53v-496l184 187c6 6 9 14 9 21c0 25 -18 29 -46 29v7h195v-7
c-104 0 -128 -30 -202 -104l232 -431c36 -65 92 -89 163 -89v-7z" />
    <glyph glyph-name="h.salt" unicode="&#xe00a;" horiz-adv-x="554" 
d="M635 -169h-47c-106 0 -193 87 -193 193v225c-4 113 -54 190 -116 190c-60 -4 -119 -68 -120 -201c-1 -1 -1 -177 -1 -177c0 -30 25 -54 54 -54h41v-7h-283v7h41c29 0 53 24 53 54v546c0 30 -24 54 -53 54h-41v7c76 8 123 17 188 53v-411c24 100 73 162 156 162
c109 0 175 -107 175 -238v-263c0 -74 60 -133 133 -133h13v-7z" />
    <glyph glyph-name="l.salt" unicode="&#xe00b;" 
d="M304 -169h-47c-106 0 -193 87 -193 193v583c0 30 -24 54 -53 54h-41v7c76 8 123 17 189 53v-750c0 -74 59 -133 132 -133h13v-7z" />
    </font>
</defs>
</svg>
